<svg width="504" height="312" viewBox="0 0 504 312" fill="none" xmlns="http://www.w3.org/2000/svg">
  <g filter="url(#filter0_dd_1_8942)">
  <g clip-path="url(#clip0_1_8942)">
  <rect width="480" height="221" transform="translate(12 2)" fill="white"/>
  <path d="M250.29 37.86L241.82 52C241.645 52.3024 241.553 52.6453 241.552 52.9945C241.551 53.3437 241.642 53.6871 241.814 53.9905C241.987 54.2939 242.237 54.5468 242.538 54.7239C242.839 54.901 243.181 54.9962 243.53 55H260.47C260.819 54.9962 261.161 54.901 261.462 54.7239C261.763 54.5468 262.013 54.2939 262.186 53.9905C262.359 53.6871 262.449 53.3437 262.448 52.9945C262.447 52.6453 262.355 52.3024 262.18 52L253.71 37.86C253.532 37.5661 253.281 37.3231 252.981 37.1545C252.682 36.9859 252.344 36.8973 252 36.8973C251.656 36.8973 251.318 36.9859 251.019 37.1545C250.719 37.3231 250.468 37.5661 250.29 37.86V37.86Z" stroke="#999999" stroke-width="2" stroke-linecap="round" stroke-linejoin="round"/>
  <path d="M252 43V47" stroke="#999999" stroke-width="2" stroke-linecap="round" stroke-linejoin="round"/>
  <path d="M252 51H252.01" stroke="#999999" stroke-width="2" stroke-linecap="round" stroke-linejoin="round"/>
  <path d="M93.4728 85.3622H90.8166C90.7408 84.9266 90.6011 84.5407 90.3976 84.2045C90.194 83.8636 89.9406 83.5748 89.6376 83.3381C89.3346 83.1013 88.9889 82.9238 88.6007 82.8054C88.2172 82.6823 87.8029 82.6207 87.3578 82.6207C86.5671 82.6207 85.8663 82.8196 85.2555 83.2173C84.6447 83.6103 84.1665 84.188 83.8208 84.9503C83.4752 85.7079 83.3024 86.6335 83.3024 87.7273C83.3024 88.84 83.4752 89.7775 83.8208 90.5398C84.1712 91.2973 84.6494 91.8703 85.2555 92.2585C85.8663 92.642 86.5647 92.8338 87.3507 92.8338C87.7863 92.8338 88.1935 92.777 88.5723 92.6634C88.9558 92.545 89.2991 92.3722 89.6021 92.1449C89.9099 91.9176 90.1679 91.6383 90.3762 91.3068C90.5893 90.9754 90.7361 90.5966 90.8166 90.1705L93.4728 90.1847C93.3734 90.8759 93.158 91.5246 92.8265 92.1307C92.4998 92.7367 92.0713 93.2718 91.541 93.7358C91.0107 94.1951 90.3904 94.5549 89.6802 94.8153C88.97 95.071 88.1816 95.1989 87.3152 95.1989C86.0368 95.1989 84.8957 94.9029 83.8919 94.3111C82.8881 93.7192 82.0974 92.8646 81.5197 91.7472C80.9421 90.6297 80.6532 89.2898 80.6532 87.7273C80.6532 86.16 80.9444 84.8201 81.5268 83.7074C82.1092 82.59 82.9023 81.7353 83.9061 81.1435C84.9099 80.5516 86.0462 80.2557 87.3152 80.2557C88.1248 80.2557 88.8777 80.3693 89.5737 80.5966C90.2697 80.8239 90.89 81.1577 91.4345 81.598C91.979 82.0336 92.4264 82.5687 92.7768 83.2031C93.1319 83.8329 93.3639 84.5526 93.4728 85.3622ZM100.531 95.2131C99.4654 95.2131 98.5421 94.9787 97.7608 94.5099C96.9796 94.0412 96.3735 93.3854 95.9426 92.5426C95.5165 91.6998 95.3034 90.715 95.3034 89.5881C95.3034 88.4612 95.5165 87.474 95.9426 86.6264C96.3735 85.7789 96.9796 85.1207 97.7608 84.652C98.5421 84.1832 99.4654 83.9489 100.531 83.9489C101.596 83.9489 102.519 84.1832 103.301 84.652C104.082 85.1207 104.686 85.7789 105.112 86.6264C105.543 87.474 105.758 88.4612 105.758 89.5881C105.758 90.715 105.543 91.6998 105.112 92.5426C104.686 93.3854 104.082 94.0412 103.301 94.5099C102.519 94.9787 101.596 95.2131 100.531 95.2131ZM100.545 93.1534C101.123 93.1534 101.606 92.9948 101.994 92.6776C102.382 92.3556 102.671 91.9247 102.86 91.3849C103.054 90.8452 103.151 90.2438 103.151 89.581C103.151 88.9134 103.054 88.3097 102.86 87.7699C102.671 87.2254 102.382 86.7921 101.994 86.4702C101.606 86.1482 101.123 85.9872 100.545 85.9872C99.9531 85.9872 99.4606 86.1482 99.0676 86.4702C98.6794 86.7921 98.3882 87.2254 98.1941 87.7699C98.0047 88.3097 97.91 88.9134 97.91 89.581C97.91 90.2438 98.0047 90.8452 98.1941 91.3849C98.3882 91.9247 98.6794 92.3556 99.0676 92.6776C99.4606 92.9948 99.9531 93.1534 100.545 93.1534ZM110.511 88.608V95H107.94V84.0909H110.398V85.9446H110.525C110.776 85.3338 111.176 84.8485 111.726 84.4886C112.28 84.1288 112.964 83.9489 113.778 83.9489C114.531 83.9489 115.187 84.1098 115.746 84.4318C116.309 84.7538 116.745 85.2202 117.052 85.831C117.365 86.4418 117.519 87.1828 117.514 88.054V95H114.943V88.4517C114.943 87.7225 114.754 87.152 114.375 86.7401C114.001 86.3281 113.482 86.1222 112.819 86.1222C112.37 86.1222 111.97 86.2216 111.619 86.4205C111.273 86.6146 111.001 86.8963 110.802 87.2656C110.608 87.6349 110.511 88.0824 110.511 88.608ZM125.653 84.0909V86.0795H119.204V84.0909H125.653ZM120.817 95V83.0611C120.817 82.3272 120.968 81.7164 121.271 81.2287C121.579 80.741 121.991 80.3764 122.507 80.1349C123.023 79.8935 123.596 79.7727 124.226 79.7727C124.671 79.7727 125.066 79.8082 125.412 79.8793C125.757 79.9503 126.013 80.0142 126.179 80.071L125.667 82.0597C125.559 82.0265 125.421 81.9934 125.256 81.9602C125.09 81.9223 124.905 81.9034 124.702 81.9034C124.223 81.9034 123.885 82.0194 123.686 82.2514C123.492 82.4787 123.395 82.8054 123.395 83.2315V95H120.817ZM127.667 95V84.0909H130.238V95H127.667ZM128.959 82.5426C128.552 82.5426 128.202 82.4077 127.908 82.1378C127.615 81.8632 127.468 81.5341 127.468 81.1506C127.468 80.7623 127.615 80.4332 127.908 80.1634C128.202 79.8887 128.552 79.7514 128.959 79.7514C129.371 79.7514 129.722 79.8887 130.01 80.1634C130.304 80.4332 130.451 80.7623 130.451 81.1506C130.451 81.5341 130.304 81.8632 130.01 82.1378C129.722 82.4077 129.371 82.5426 128.959 82.5426ZM132.882 95V84.0909H135.374V85.9091H135.488C135.687 85.2794 136.028 84.794 136.511 84.4531C136.999 84.1075 137.555 83.9347 138.18 83.9347C138.322 83.9347 138.481 83.9418 138.656 83.956C138.836 83.9654 138.985 83.982 139.103 84.0057V86.3707C138.994 86.3329 138.821 86.2997 138.585 86.2713C138.353 86.2382 138.128 86.2216 137.91 86.2216C137.441 86.2216 137.02 86.3234 136.646 86.527C136.276 86.7259 135.985 87.0028 135.772 87.358C135.559 87.7131 135.453 88.1226 135.453 88.5866V95H132.882ZM140.811 95V84.0909H143.269V85.9446H143.396C143.624 85.3196 144 84.8319 144.526 84.4815C145.051 84.1264 145.679 83.9489 146.408 83.9489C147.146 83.9489 147.769 84.1288 148.276 84.4886C148.787 84.8437 149.147 85.3291 149.355 85.9446H149.469C149.71 85.3385 150.118 84.8556 150.691 84.4957C151.268 84.1312 151.952 83.9489 152.743 83.9489C153.747 83.9489 154.566 84.2661 155.2 84.9006C155.835 85.535 156.152 86.4607 156.152 87.6776V95H153.574V88.0753C153.574 87.3982 153.394 86.9034 153.034 86.5909C152.674 86.2737 152.234 86.1151 151.713 86.1151C151.093 86.1151 150.608 86.3092 150.257 86.6974C149.912 87.081 149.739 87.5805 149.739 88.196V95H147.218V87.9688C147.218 87.4053 147.047 86.9555 146.706 86.6193C146.37 86.2831 145.93 86.1151 145.385 86.1151C145.016 86.1151 144.68 86.2098 144.377 86.3991C144.074 86.5838 143.832 86.8466 143.652 87.1875C143.472 87.5237 143.382 87.9167 143.382 88.3665V95H140.811ZM167.77 95.1918C166.913 95.1918 166.146 94.9716 165.469 94.5312C164.791 94.0909 164.256 93.4517 163.863 92.6136C163.47 91.7756 163.274 90.7576 163.274 89.5597C163.274 88.3475 163.473 87.3248 163.871 86.4915C164.273 85.6534 164.815 85.0213 165.497 84.5952C166.179 84.1643 166.939 83.9489 167.777 83.9489C168.416 83.9489 168.942 84.0578 169.354 84.2756C169.765 84.4886 170.092 84.7467 170.334 85.0497C170.575 85.348 170.762 85.6297 170.895 85.8949H171.001V80.4545H173.579V95H171.051V93.2812H170.895C170.762 93.5464 170.57 93.8281 170.319 94.1264C170.068 94.42 169.737 94.6709 169.325 94.8793C168.913 95.0876 168.395 95.1918 167.77 95.1918ZM168.487 93.0824C169.032 93.0824 169.496 92.9356 169.879 92.642C170.263 92.3437 170.554 91.9295 170.753 91.3991C170.952 90.8688 171.051 90.2509 171.051 89.5455C171.051 88.84 170.952 88.2268 170.753 87.706C170.559 87.1851 170.27 86.7803 169.886 86.4915C169.507 86.2027 169.041 86.0582 168.487 86.0582C167.914 86.0582 167.436 86.2074 167.052 86.5057C166.669 86.804 166.38 87.2159 166.186 87.7415C165.992 88.267 165.895 88.8684 165.895 89.5455C165.895 90.2273 165.992 90.8357 166.186 91.3707C166.385 91.901 166.676 92.3201 167.059 92.6278C167.448 92.9309 167.924 93.0824 168.487 93.0824ZM181.149 95.2131C180.055 95.2131 179.11 94.9858 178.315 94.5312C177.524 94.072 176.916 93.4233 176.49 92.5852C176.063 91.7424 175.85 90.7505 175.85 89.6094C175.85 88.4872 176.063 87.5024 176.49 86.6548C176.92 85.8026 177.522 85.1397 178.294 84.6662C179.065 84.188 179.972 83.9489 181.014 83.9489C181.686 83.9489 182.32 84.0578 182.917 84.2756C183.518 84.4886 184.049 84.8201 184.508 85.2699C184.972 85.7197 185.337 86.2926 185.602 86.9886C185.867 87.6799 185.999 88.5038 185.999 89.4602V90.2486H177.058V88.5156H183.535C183.53 88.0232 183.424 87.5852 183.215 87.2017C183.007 86.8134 182.716 86.508 182.342 86.2855C181.972 86.063 181.542 85.9517 181.049 85.9517C180.524 85.9517 180.062 86.0795 179.664 86.3352C179.267 86.5862 178.956 86.9176 178.734 87.3295C178.516 87.7367 178.405 88.1842 178.4 88.6719V90.1847C178.4 90.8191 178.516 91.3636 178.748 91.8182C178.98 92.268 179.304 92.6136 179.721 92.8551C180.138 93.0919 180.625 93.2102 181.184 93.2102C181.558 93.2102 181.897 93.1581 182.2 93.054C182.503 92.9451 182.766 92.7865 182.988 92.5781C183.211 92.3698 183.379 92.1117 183.492 91.804L185.893 92.0739C185.741 92.7083 185.453 93.2623 185.026 93.7358C184.605 94.2045 184.065 94.5691 183.407 94.8295C182.749 95.0852 181.996 95.2131 181.149 95.2131ZM190.746 80.4545V95H188.175V80.4545H190.746ZM193.389 95V84.0909H195.96V95H193.389ZM194.682 82.5426C194.275 82.5426 193.924 82.4077 193.631 82.1378C193.337 81.8632 193.191 81.5341 193.191 81.1506C193.191 80.7623 193.337 80.4332 193.631 80.1634C193.924 79.8887 194.275 79.7514 194.682 79.7514C195.094 79.7514 195.444 79.8887 195.733 80.1634C196.027 80.4332 196.173 80.7623 196.173 81.1506C196.173 81.5341 196.027 81.8632 195.733 82.1378C195.444 82.4077 195.094 82.5426 194.682 82.5426ZM208.349 84.0909L204.464 95H201.623L197.738 84.0909H200.479L202.986 92.1946H203.1L205.614 84.0909H208.349ZM214.586 95.2131C213.492 95.2131 212.548 94.9858 211.752 94.5312C210.962 94.072 210.353 93.4233 209.927 92.5852C209.501 91.7424 209.288 90.7505 209.288 89.6094C209.288 88.4872 209.501 87.5024 209.927 86.6548C210.358 85.8026 210.959 85.1397 211.731 84.6662C212.503 84.188 213.41 83.9489 214.451 83.9489C215.124 83.9489 215.758 84.0578 216.355 84.2756C216.956 84.4886 217.486 84.8201 217.945 85.2699C218.41 85.7197 218.774 86.2926 219.039 86.9886C219.304 87.6799 219.437 88.5038 219.437 89.4602V90.2486H210.495V88.5156H216.972C216.968 88.0232 216.861 87.5852 216.653 87.2017C216.445 86.8134 216.153 86.508 215.779 86.2855C215.41 86.063 214.979 85.9517 214.487 85.9517C213.961 85.9517 213.499 86.0795 213.102 86.3352C212.704 86.5862 212.394 86.9176 212.171 87.3295C211.954 87.7367 211.842 88.1842 211.838 88.6719V90.1847C211.838 90.8191 211.954 91.3636 212.186 91.8182C212.418 92.268 212.742 92.6136 213.159 92.8551C213.575 93.0919 214.063 93.2102 214.622 93.2102C214.996 93.2102 215.334 93.1581 215.637 93.054C215.94 92.9451 216.203 92.7865 216.426 92.5781C216.648 92.3698 216.816 92.1117 216.93 91.804L219.33 92.0739C219.179 92.7083 218.89 93.2623 218.464 93.7358C218.043 94.2045 217.503 94.5691 216.845 94.8295C216.186 95.0852 215.434 95.2131 214.586 95.2131ZM221.612 95V84.0909H224.105V85.9091H224.219C224.417 85.2794 224.758 84.794 225.241 84.4531C225.729 84.1075 226.285 83.9347 226.91 83.9347C227.052 83.9347 227.211 83.9418 227.386 83.956C227.566 83.9654 227.715 83.982 227.834 84.0057V86.3707C227.725 86.3329 227.552 86.2997 227.315 86.2713C227.083 86.2382 226.858 86.2216 226.64 86.2216C226.172 86.2216 225.75 86.3234 225.376 86.527C225.007 86.7259 224.716 87.0028 224.503 87.358C224.29 87.7131 224.183 88.1226 224.183 88.5866V95H221.612ZM231.472 99.0909C231.121 99.0909 230.797 99.0625 230.499 99.0057C230.205 98.9536 229.971 98.892 229.796 98.821L230.392 96.8182C230.766 96.9271 231.1 96.9792 231.394 96.9744C231.687 96.9697 231.945 96.8774 232.168 96.6974C232.395 96.5223 232.587 96.2287 232.743 95.8168L232.963 95.2273L229.007 84.0909H231.735L234.249 92.3295H234.362L236.884 84.0909H239.618L235.25 96.321C235.047 96.8987 234.777 97.3935 234.441 97.8054C234.104 98.2221 233.692 98.5393 233.205 98.7571C232.722 98.9796 232.144 99.0909 231.472 99.0909ZM251.884 84.0909V86.0795H245.435V84.0909H251.884ZM247.047 95V83.0611C247.047 82.3272 247.199 81.7164 247.502 81.2287C247.809 80.741 248.221 80.3764 248.737 80.1349C249.253 79.8935 249.826 79.7727 250.456 79.7727C250.901 79.7727 251.297 79.8082 251.642 79.8793C251.988 79.9503 252.244 80.0142 252.409 80.071L251.898 82.0597C251.789 82.0265 251.652 81.9934 251.486 81.9602C251.32 81.9223 251.136 81.9034 250.932 81.9034C250.454 81.9034 250.115 82.0194 249.916 82.2514C249.722 82.4787 249.625 82.8054 249.625 83.2315V95H247.047ZM258.246 95.2131C257.18 95.2131 256.257 94.9787 255.476 94.5099C254.694 94.0412 254.088 93.3854 253.657 92.5426C253.231 91.6998 253.018 90.715 253.018 89.5881C253.018 88.4612 253.231 87.474 253.657 86.6264C254.088 85.7789 254.694 85.1207 255.476 84.652C256.257 84.1832 257.18 83.9489 258.246 83.9489C259.311 83.9489 260.234 84.1832 261.015 84.652C261.797 85.1207 262.4 85.7789 262.827 86.6264C263.257 87.474 263.473 88.4612 263.473 89.5881C263.473 90.715 263.257 91.6998 262.827 92.5426C262.4 93.3854 261.797 94.0412 261.015 94.5099C260.234 94.9787 259.311 95.2131 258.246 95.2131ZM258.26 93.1534C258.837 93.1534 259.32 92.9948 259.709 92.6776C260.097 92.3556 260.386 91.9247 260.575 91.3849C260.769 90.8452 260.866 90.2438 260.866 89.581C260.866 88.9134 260.769 88.3097 260.575 87.7699C260.386 87.2254 260.097 86.7921 259.709 86.4702C259.32 86.1482 258.837 85.9872 258.26 85.9872C257.668 85.9872 257.175 86.1482 256.782 86.4702C256.394 86.7921 256.103 87.2254 255.909 87.7699C255.72 88.3097 255.625 88.9134 255.625 89.581C255.625 90.2438 255.72 90.8452 255.909 91.3849C256.103 91.9247 256.394 92.3556 256.782 92.6776C257.175 92.9948 257.668 93.1534 258.26 93.1534ZM265.655 95V84.0909H268.148V85.9091H268.262C268.46 85.2794 268.801 84.794 269.284 84.4531C269.772 84.1075 270.328 83.9347 270.953 83.9347C271.095 83.9347 271.254 83.9418 271.429 83.956C271.609 83.9654 271.758 83.982 271.877 84.0057V86.3707C271.768 86.3329 271.595 86.2997 271.358 86.2713C271.126 86.2382 270.901 86.2216 270.683 86.2216C270.215 86.2216 269.793 86.3234 269.419 86.527C269.05 86.7259 268.759 87.0028 268.546 87.358C268.333 87.7131 268.226 88.1226 268.226 88.5866V95H265.655ZM291.656 87.7273C291.656 89.2945 291.363 90.6368 290.776 91.7543C290.193 92.867 289.398 93.7192 288.389 94.3111C287.386 94.9029 286.247 95.1989 284.973 95.1989C283.7 95.1989 282.558 94.9029 281.55 94.3111C280.546 93.7145 279.751 92.8598 279.164 91.7472C278.581 90.6297 278.29 89.2898 278.29 87.7273C278.29 86.16 278.581 84.8201 279.164 83.7074C279.751 82.59 280.546 81.7353 281.55 81.1435C282.558 80.5516 283.7 80.2557 284.973 80.2557C286.247 80.2557 287.386 80.5516 288.389 81.1435C289.398 81.7353 290.193 82.59 290.776 83.7074C291.363 84.8201 291.656 86.16 291.656 87.7273ZM289.007 87.7273C289.007 86.6241 288.834 85.6937 288.489 84.9361C288.148 84.1738 287.674 83.5985 287.068 83.2102C286.462 82.8172 285.764 82.6207 284.973 82.6207C284.182 82.6207 283.484 82.8172 282.878 83.2102C282.272 83.5985 281.796 84.1738 281.45 84.9361C281.11 85.6937 280.939 86.6241 280.939 87.7273C280.939 88.8305 281.11 89.7633 281.45 90.5256C281.796 91.2831 282.272 91.8584 282.878 92.2514C283.484 92.6397 284.182 92.8338 284.973 92.8338C285.764 92.8338 286.462 92.6397 287.068 92.2514C287.674 91.8584 288.148 91.2831 288.489 90.5256C288.834 89.7633 289.007 88.8305 289.007 87.7273ZM294.034 95V84.0909H296.527V85.9091H296.64C296.839 85.2794 297.18 84.794 297.663 84.4531C298.151 84.1075 298.707 83.9347 299.332 83.9347C299.474 83.9347 299.633 83.9418 299.808 83.956C299.988 83.9654 300.137 83.982 300.256 84.0057V86.3707C300.147 86.3329 299.974 86.2997 299.737 86.2713C299.505 86.2382 299.28 86.2216 299.062 86.2216C298.594 86.2216 298.172 86.3234 297.798 86.527C297.429 86.7259 297.138 87.0028 296.925 87.358C296.711 87.7131 296.605 88.1226 296.605 88.5866V95H294.034ZM305.563 95.1918C304.706 95.1918 303.939 94.9716 303.262 94.5312C302.584 94.0909 302.049 93.4517 301.656 92.6136C301.263 91.7756 301.067 90.7576 301.067 89.5597C301.067 88.3475 301.266 87.3248 301.664 86.4915C302.066 85.6534 302.608 85.0213 303.29 84.5952C303.972 84.1643 304.732 83.9489 305.57 83.9489C306.209 83.9489 306.735 84.0578 307.146 84.2756C307.558 84.4886 307.885 84.7467 308.127 85.0497C308.368 85.348 308.555 85.6297 308.688 85.8949H308.794V80.4545H311.372V95H308.844V93.2812H308.688C308.555 93.5464 308.363 93.8281 308.112 94.1264C307.861 94.42 307.53 94.6709 307.118 94.8793C306.706 95.0876 306.188 95.1918 305.563 95.1918ZM306.28 93.0824C306.825 93.0824 307.289 92.9356 307.672 92.642C308.056 92.3437 308.347 91.9295 308.546 91.3991C308.744 90.8688 308.844 90.2509 308.844 89.5455C308.844 88.84 308.744 88.2268 308.546 87.706C308.352 87.1851 308.063 86.7803 307.679 86.4915C307.3 86.2027 306.834 86.0582 306.28 86.0582C305.707 86.0582 305.229 86.2074 304.845 86.5057C304.462 86.804 304.173 87.2159 303.979 87.7415C303.785 88.267 303.688 88.8684 303.688 89.5455C303.688 90.2273 303.785 90.8357 303.979 91.3707C304.178 91.901 304.469 92.3201 304.852 92.6278C305.241 92.9309 305.717 93.0824 306.28 93.0824ZM318.942 95.2131C317.848 95.2131 316.903 94.9858 316.108 94.5312C315.317 94.072 314.709 93.4233 314.282 92.5852C313.856 91.7424 313.643 90.7505 313.643 89.6094C313.643 88.4872 313.856 87.5024 314.282 86.6548C314.713 85.8026 315.315 85.1397 316.086 84.6662C316.858 84.188 317.765 83.9489 318.807 83.9489C319.479 83.9489 320.113 84.0578 320.71 84.2756C321.311 84.4886 321.842 84.8201 322.301 85.2699C322.765 85.7197 323.13 86.2926 323.395 86.9886C323.66 87.6799 323.792 88.5038 323.792 89.4602V90.2486H314.851V88.5156H321.328C321.323 88.0232 321.217 87.5852 321.008 87.2017C320.8 86.8134 320.509 86.508 320.135 86.2855C319.765 86.063 319.335 85.9517 318.842 85.9517C318.317 85.9517 317.855 86.0795 317.457 86.3352C317.059 86.5862 316.749 86.9176 316.527 87.3295C316.309 87.7367 316.198 88.1842 316.193 88.6719V90.1847C316.193 90.8191 316.309 91.3636 316.541 91.8182C316.773 92.268 317.097 92.6136 317.514 92.8551C317.931 93.0919 318.418 93.2102 318.977 93.2102C319.351 93.2102 319.69 93.1581 319.993 93.054C320.296 92.9451 320.559 92.7865 320.781 92.5781C321.004 92.3698 321.172 92.1117 321.285 91.804L323.686 92.0739C323.534 92.7083 323.246 93.2623 322.819 93.7358C322.398 94.2045 321.858 94.5691 321.2 94.8295C320.542 95.0852 319.789 95.2131 318.942 95.2131ZM325.968 95V84.0909H328.46V85.9091H328.574C328.773 85.2794 329.114 84.794 329.597 84.4531C330.084 84.1075 330.641 83.9347 331.266 83.9347C331.408 83.9347 331.566 83.9418 331.742 83.956C331.922 83.9654 332.071 83.982 332.189 84.0057V86.3707C332.08 86.3329 331.907 86.2997 331.671 86.2713C331.439 86.2382 331.214 86.2216 330.996 86.2216C330.527 86.2216 330.106 86.3234 329.732 86.527C329.362 86.7259 329.071 87.0028 328.858 87.358C328.645 87.7131 328.539 88.1226 328.539 88.5866V95H325.968ZM344.341 95L346.727 80.4545H348.716L346.33 95H344.341ZM337.786 91.25L338.119 89.2614H349.313L348.979 91.25H337.786ZM339.227 95L341.614 80.4545H343.602L341.216 95H339.227ZM338.631 86.1932L338.958 84.2045H350.151L349.824 86.1932H338.631ZM357.617 80.4545V95H354.982V83.0185H354.897L351.495 85.1918V82.777L355.11 80.4545H357.617ZM361.31 95V93.0966L366.36 88.1463C366.843 87.6586 367.245 87.2254 367.567 86.8466C367.889 86.4678 368.131 86.1009 368.292 85.7457C368.453 85.3906 368.533 85.0118 368.533 84.6094C368.533 84.1501 368.429 83.7571 368.221 83.4304C368.012 83.099 367.726 82.8433 367.361 82.6634C366.997 82.4834 366.582 82.3935 366.118 82.3935C365.64 82.3935 365.221 82.4929 364.861 82.6918C364.501 82.8859 364.222 83.1629 364.023 83.5227C363.829 83.8826 363.732 84.3111 363.732 84.8082H361.225C361.225 83.8849 361.436 83.0824 361.857 82.4006C362.278 81.7187 362.858 81.1908 363.597 80.8168C364.34 80.4427 365.193 80.2557 366.154 80.2557C367.129 80.2557 367.986 80.438 368.725 80.8026C369.464 81.1671 370.037 81.6667 370.444 82.3011C370.856 82.9356 371.062 83.66 371.062 84.4744C371.062 85.0189 370.957 85.554 370.749 86.0795C370.541 86.6051 370.174 87.1875 369.648 87.8267C369.127 88.4659 368.396 89.2401 367.454 90.1491L364.947 92.6989V92.7983H371.282V95H361.31ZM378.952 95.1989C377.93 95.1989 377.02 95.0237 376.225 94.6733C375.434 94.3229 374.809 93.8352 374.35 93.2102C373.891 92.5852 373.647 91.8632 373.618 91.044H376.289C376.313 91.437 376.443 91.7803 376.68 92.0739C376.916 92.3627 377.231 92.5876 377.624 92.7486C378.017 92.9096 378.457 92.9901 378.945 92.9901C379.466 92.9901 379.928 92.9001 380.33 92.7202C380.733 92.5355 381.047 92.2798 381.275 91.9531C381.502 91.6264 381.613 91.25 381.608 90.8239C381.613 90.3835 381.5 89.9953 381.268 89.6591C381.036 89.3229 380.699 89.0601 380.259 88.8707C379.823 88.6813 379.298 88.5866 378.682 88.5866H377.397V86.5554H378.682C379.189 86.5554 379.632 86.4678 380.01 86.2926C380.394 86.1174 380.695 85.8712 380.912 85.554C381.13 85.232 381.237 84.8603 381.232 84.4389C381.237 84.027 381.144 83.6695 380.955 83.3665C380.77 83.0587 380.508 82.8196 380.167 82.6491C379.831 82.4787 379.435 82.3935 378.981 82.3935C378.536 82.3935 378.124 82.474 377.745 82.6349C377.366 82.7959 377.061 83.0256 376.829 83.3239C376.597 83.6174 376.474 83.9678 376.459 84.375H373.924C373.943 83.5606 374.177 82.8456 374.627 82.2301C375.081 81.6098 375.688 81.1269 376.445 80.7812C377.203 80.4309 378.053 80.2557 378.995 80.2557C379.965 80.2557 380.808 80.438 381.523 80.8026C382.243 81.1624 382.799 81.6477 383.192 82.2585C383.585 82.8693 383.782 83.544 383.782 84.2827C383.787 85.1018 383.545 85.7884 383.057 86.3423C382.574 86.8963 381.94 87.2585 381.154 87.429V87.5426C382.177 87.6847 382.96 88.0634 383.505 88.679C384.054 89.2898 384.326 90.0497 384.322 90.9588C384.322 91.7732 384.09 92.5024 383.626 93.1463C383.166 93.7855 382.532 94.2874 381.722 94.652C380.917 95.0166 379.994 95.1989 378.952 95.1989ZM386.497 92.3011V90.206L392.669 80.4545H394.416V83.4375H393.35L389.195 90.0213V90.1349H397.811V92.3011H386.497ZM393.436 95V91.6619L393.464 90.7244V80.4545H395.95V95H393.436ZM405.137 95.1989C404.19 95.1989 403.342 95.0213 402.594 94.6662C401.846 94.3063 401.252 93.8139 400.811 93.1889C400.376 92.5639 400.144 91.849 400.115 91.044H402.672C402.719 91.6406 402.977 92.1283 403.446 92.5071C403.915 92.8812 404.478 93.0682 405.137 93.0682C405.653 93.0682 406.112 92.9498 406.514 92.7131C406.917 92.4763 407.234 92.1473 407.466 91.7259C407.698 91.3045 407.812 90.8239 407.807 90.2841C407.812 89.7348 407.696 89.2472 407.459 88.821C407.222 88.3949 406.898 88.0611 406.486 87.8196C406.074 87.5734 405.601 87.4503 405.066 87.4503C404.63 87.4455 404.201 87.526 403.78 87.6918C403.359 87.8575 403.025 88.0753 402.779 88.3452L400.399 87.9545L401.159 80.4545H409.597V82.6562H403.34L402.921 86.5128H403.006C403.276 86.1955 403.657 85.9328 404.149 85.7244C404.642 85.5114 405.182 85.4048 405.769 85.4048C406.649 85.4048 407.435 85.6132 408.127 86.0298C408.818 86.4418 409.362 87.0099 409.76 87.7344C410.158 88.4588 410.357 89.2874 410.357 90.2202C410.357 91.1813 410.134 92.0384 409.689 92.7912C409.249 93.5393 408.636 94.1288 407.85 94.5597C407.068 94.9858 406.164 95.1989 405.137 95.1989ZM418.063 95.1989C417.367 95.1941 416.687 95.0734 416.024 94.8366C415.361 94.5952 414.765 94.2045 414.235 93.6648C413.704 93.1203 413.283 92.3982 412.97 91.4986C412.658 90.5942 412.504 89.4744 412.509 88.1392C412.509 86.8939 412.641 85.7836 412.906 84.8082C413.172 83.8329 413.553 83.009 414.05 82.3366C414.547 81.6596 415.146 81.1435 415.847 80.7884C416.552 80.4332 417.341 80.2557 418.212 80.2557C419.126 80.2557 419.935 80.4356 420.641 80.7955C421.351 81.1553 421.924 81.6477 422.36 82.2727C422.795 82.893 423.065 83.5938 423.169 84.375H420.577C420.444 83.8163 420.172 83.3712 419.76 83.0398C419.353 82.7036 418.837 82.5355 418.212 82.5355C417.203 82.5355 416.427 82.9735 415.882 83.8494C415.343 84.7254 415.07 85.928 415.066 87.4574H415.165C415.397 87.0407 415.698 86.6832 416.067 86.3849C416.436 86.0866 416.853 85.857 417.317 85.696C417.786 85.5303 418.28 85.4474 418.801 85.4474C419.654 85.4474 420.418 85.651 421.095 86.0582C421.777 86.4654 422.317 87.0265 422.715 87.7415C423.112 88.4517 423.309 89.2661 423.304 90.1847C423.309 91.1411 423.091 92.0005 422.651 92.7628C422.21 93.5204 421.597 94.117 420.811 94.5526C420.025 94.9882 419.109 95.2036 418.063 95.1989ZM418.048 93.0682C418.565 93.0682 419.026 92.9427 419.433 92.6918C419.841 92.4408 420.163 92.1023 420.399 91.6761C420.636 91.25 420.752 90.7718 420.747 90.2415C420.752 89.7206 420.638 89.2495 420.406 88.8281C420.179 88.4067 419.864 88.0729 419.462 87.8267C419.059 87.5805 418.6 87.4574 418.084 87.4574C417.7 87.4574 417.343 87.5308 417.012 87.6776C416.68 87.8243 416.391 88.0279 416.145 88.2884C415.899 88.544 415.705 88.8423 415.563 89.1832C415.425 89.5194 415.354 89.8793 415.35 90.2628C415.354 90.7694 415.473 91.2358 415.705 91.6619C415.937 92.0881 416.256 92.429 416.664 92.6847C417.071 92.9403 417.532 93.0682 418.048 93.0682Z" fill="#231F20"/>
  <path d="M110.541 120V109.818H116.925V111.141H112.078V114.243H116.592V115.56H112.078V118.678H116.985V120H110.541ZM120.344 115.466V120H118.858V112.364H120.285V113.607H120.379C120.555 113.202 120.83 112.877 121.204 112.632C121.582 112.387 122.058 112.264 122.631 112.264C123.151 112.264 123.607 112.374 123.998 112.592C124.389 112.808 124.693 113.129 124.908 113.557C125.124 113.984 125.231 114.513 125.231 115.143V120H123.745V115.322C123.745 114.768 123.601 114.336 123.312 114.024C123.024 113.709 122.628 113.552 122.124 113.552C121.779 113.552 121.473 113.626 121.204 113.776C120.939 113.925 120.729 114.143 120.573 114.432C120.42 114.717 120.344 115.062 120.344 115.466ZM130.79 112.364V113.557H126.618V112.364H130.79ZM127.737 110.534H129.223V117.758C129.223 118.046 129.267 118.263 129.353 118.409C129.439 118.552 129.55 118.649 129.686 118.702C129.825 118.752 129.976 118.777 130.138 118.777C130.258 118.777 130.362 118.769 130.451 118.752C130.541 118.736 130.611 118.722 130.66 118.712L130.929 119.94C130.843 119.973 130.72 120.007 130.561 120.04C130.402 120.076 130.203 120.096 129.964 120.099C129.573 120.106 129.209 120.036 128.87 119.891C128.532 119.745 128.259 119.519 128.05 119.214C127.841 118.91 127.737 118.527 127.737 118.066V110.534ZM135.643 120.154C134.891 120.154 134.243 119.993 133.699 119.672C133.159 119.347 132.741 118.891 132.446 118.305C132.155 117.715 132.009 117.024 132.009 116.232C132.009 115.449 132.155 114.76 132.446 114.163C132.741 113.567 133.152 113.101 133.679 112.766C134.21 112.432 134.829 112.264 135.539 112.264C135.969 112.264 136.387 112.335 136.791 112.478C137.196 112.621 137.559 112.844 137.88 113.149C138.202 113.454 138.455 113.85 138.641 114.337C138.826 114.821 138.919 115.41 138.919 116.102V116.629H132.849V115.516H137.463C137.463 115.125 137.383 114.778 137.224 114.477C137.065 114.172 136.841 113.931 136.553 113.756C136.268 113.58 135.933 113.492 135.549 113.492C135.131 113.492 134.766 113.595 134.455 113.8C134.147 114.003 133.908 114.268 133.739 114.596C133.573 114.921 133.49 115.274 133.49 115.655V116.525C133.49 117.035 133.58 117.469 133.759 117.827C133.941 118.185 134.195 118.459 134.519 118.648C134.844 118.833 135.224 118.926 135.658 118.926C135.94 118.926 136.197 118.886 136.429 118.807C136.661 118.724 136.861 118.601 137.03 118.439C137.199 118.277 137.328 118.076 137.418 117.837L138.825 118.091C138.712 118.505 138.51 118.868 138.218 119.18C137.93 119.488 137.567 119.728 137.13 119.901C136.695 120.07 136.2 120.154 135.643 120.154ZM140.569 120V112.364H142.005V113.577H142.085C142.224 113.166 142.469 112.843 142.821 112.607C143.175 112.369 143.576 112.249 144.024 112.249C144.117 112.249 144.226 112.253 144.352 112.259C144.481 112.266 144.582 112.274 144.655 112.284V113.706C144.596 113.689 144.49 113.671 144.337 113.651C144.185 113.628 144.032 113.616 143.88 113.616C143.528 113.616 143.215 113.691 142.94 113.84C142.668 113.986 142.453 114.19 142.294 114.452C142.135 114.71 142.055 115.005 142.055 115.337V120H140.569ZM153.211 112.364V113.557H149.04V112.364H153.211ZM150.159 110.534H151.645V117.758C151.645 118.046 151.688 118.263 151.775 118.409C151.861 118.552 151.972 118.649 152.108 118.702C152.247 118.752 152.398 118.777 152.56 118.777C152.679 118.777 152.784 118.769 152.873 118.752C152.963 118.736 153.032 118.722 153.082 118.712L153.351 119.94C153.264 119.973 153.142 120.007 152.983 120.04C152.824 120.076 152.625 120.096 152.386 120.099C151.995 120.106 151.63 120.036 151.292 119.891C150.954 119.745 150.681 119.519 150.472 119.214C150.263 118.91 150.159 118.527 150.159 118.066V110.534ZM156.506 115.466V120H155.02V109.818H156.486V113.607H156.581C156.76 113.196 157.033 112.869 157.401 112.627C157.769 112.385 158.25 112.264 158.843 112.264C159.367 112.264 159.824 112.372 160.215 112.587C160.61 112.803 160.914 113.124 161.13 113.552C161.349 113.976 161.458 114.506 161.458 115.143V120H159.972V115.322C159.972 114.762 159.827 114.327 159.539 114.019C159.251 113.708 158.85 113.552 158.336 113.552C157.985 113.552 157.67 113.626 157.391 113.776C157.116 113.925 156.899 114.143 156.74 114.432C156.584 114.717 156.506 115.062 156.506 115.466ZM166.733 120.154C165.98 120.154 165.333 119.993 164.789 119.672C164.249 119.347 163.831 118.891 163.536 118.305C163.244 117.715 163.099 117.024 163.099 116.232C163.099 115.449 163.244 114.76 163.536 114.163C163.831 113.567 164.242 113.101 164.769 112.766C165.299 112.432 165.919 112.264 166.628 112.264C167.059 112.264 167.477 112.335 167.881 112.478C168.286 112.621 168.649 112.844 168.97 113.149C169.292 113.454 169.545 113.85 169.731 114.337C169.916 114.821 170.009 115.41 170.009 116.102V116.629H163.939V115.516H168.552C168.552 115.125 168.473 114.778 168.314 114.477C168.155 114.172 167.931 113.931 167.643 113.756C167.358 113.58 167.023 113.492 166.638 113.492C166.221 113.492 165.856 113.595 165.545 113.8C165.236 114.003 164.998 114.268 164.829 114.596C164.663 114.921 164.58 115.274 164.58 115.655V116.525C164.58 117.035 164.67 117.469 164.849 117.827C165.031 118.185 165.284 118.459 165.609 118.648C165.934 118.833 166.314 118.926 166.748 118.926C167.03 118.926 167.286 118.886 167.518 118.807C167.75 118.724 167.951 118.601 168.12 118.439C168.289 118.277 168.418 118.076 168.508 117.837L169.915 118.091C169.802 118.505 169.6 118.868 169.308 119.18C169.02 119.488 168.657 119.728 168.219 119.901C167.785 120.07 167.29 120.154 166.733 120.154ZM178.58 120.154C177.864 120.154 177.239 119.99 176.706 119.662C176.172 119.334 175.758 118.875 175.463 118.285C175.168 117.695 175.021 117.005 175.021 116.217C175.021 115.424 175.168 114.732 175.463 114.138C175.758 113.545 176.172 113.085 176.706 112.756C177.239 112.428 177.864 112.264 178.58 112.264C179.296 112.264 179.921 112.428 180.454 112.756C180.988 113.085 181.402 113.545 181.697 114.138C181.992 114.732 182.14 115.424 182.14 116.217C182.14 117.005 181.992 117.695 181.697 118.285C181.402 118.875 180.988 119.334 180.454 119.662C179.921 119.99 179.296 120.154 178.58 120.154ZM178.585 118.906C179.049 118.906 179.434 118.784 179.739 118.538C180.043 118.293 180.269 117.967 180.415 117.559C180.564 117.151 180.638 116.702 180.638 116.212C180.638 115.724 180.564 115.277 180.415 114.869C180.269 114.458 180.043 114.129 179.739 113.88C179.434 113.631 179.049 113.507 178.585 113.507C178.118 113.507 177.73 113.631 177.422 113.88C177.117 114.129 176.89 114.458 176.741 114.869C176.595 115.277 176.522 115.724 176.522 116.212C176.522 116.702 176.595 117.151 176.741 117.559C176.89 117.967 177.117 118.293 177.422 118.538C177.73 118.784 178.118 118.906 178.585 118.906ZM183.799 120V112.364H185.236V113.577H185.315C185.455 113.166 185.7 112.843 186.051 112.607C186.406 112.369 186.807 112.249 187.254 112.249C187.347 112.249 187.457 112.253 187.582 112.259C187.712 112.266 187.813 112.274 187.886 112.284V113.706C187.826 113.689 187.72 113.671 187.568 113.651C187.415 113.628 187.263 113.616 187.11 113.616C186.759 113.616 186.446 113.691 186.171 113.84C185.899 113.986 185.683 114.19 185.524 114.452C185.365 114.71 185.286 115.005 185.286 115.337V120H183.799ZM191.757 120.149C191.141 120.149 190.591 119.992 190.107 119.677C189.626 119.359 189.248 118.906 188.973 118.32C188.701 117.73 188.566 117.022 188.566 116.197C188.566 115.371 188.703 114.665 188.978 114.079C189.257 113.492 189.638 113.043 190.122 112.732C190.606 112.42 191.154 112.264 191.767 112.264C192.241 112.264 192.622 112.344 192.911 112.503C193.202 112.659 193.428 112.841 193.587 113.05C193.749 113.259 193.875 113.442 193.965 113.602H194.054V109.818H195.541V120H194.089V118.812H193.965C193.875 118.974 193.746 119.16 193.577 119.369C193.411 119.577 193.183 119.76 192.891 119.915C192.599 120.071 192.221 120.149 191.757 120.149ZM192.085 118.881C192.513 118.881 192.874 118.769 193.169 118.543C193.468 118.315 193.693 117.998 193.845 117.594C194.001 117.189 194.079 116.719 194.079 116.182C194.079 115.652 194.003 115.187 193.85 114.79C193.698 114.392 193.474 114.082 193.179 113.86C192.884 113.638 192.52 113.527 192.085 113.527C191.638 113.527 191.265 113.643 190.967 113.875C190.669 114.107 190.443 114.424 190.291 114.825C190.142 115.226 190.067 115.678 190.067 116.182C190.067 116.692 190.143 117.151 190.296 117.559C190.448 117.967 190.674 118.29 190.972 118.528C191.273 118.764 191.645 118.881 192.085 118.881ZM200.954 120.154C200.201 120.154 199.553 119.993 199.01 119.672C198.469 119.347 198.052 118.891 197.757 118.305C197.465 117.715 197.319 117.024 197.319 116.232C197.319 115.449 197.465 114.76 197.757 114.163C198.052 113.567 198.463 113.101 198.99 112.766C199.52 112.432 200.14 112.264 200.849 112.264C201.28 112.264 201.698 112.335 202.102 112.478C202.506 112.621 202.869 112.844 203.191 113.149C203.512 113.454 203.766 113.85 203.951 114.337C204.137 114.821 204.23 115.41 204.23 116.102V116.629H198.16V115.516H202.773C202.773 115.125 202.694 114.778 202.535 114.477C202.375 114.172 202.152 113.931 201.863 113.756C201.578 113.58 201.244 113.492 200.859 113.492C200.441 113.492 200.077 113.595 199.765 113.8C199.457 114.003 199.218 114.268 199.049 114.596C198.884 114.921 198.801 115.274 198.801 115.655V116.525C198.801 117.035 198.89 117.469 199.069 117.827C199.252 118.185 199.505 118.459 199.83 118.648C200.155 118.833 200.534 118.926 200.968 118.926C201.25 118.926 201.507 118.886 201.739 118.807C201.971 118.724 202.172 118.601 202.341 118.439C202.51 118.277 202.639 118.076 202.728 117.837L204.135 118.091C204.023 118.505 203.821 118.868 203.529 119.18C203.241 119.488 202.878 119.728 202.44 119.901C202.006 120.07 201.51 120.154 200.954 120.154ZM205.879 120V112.364H207.316V113.577H207.396C207.535 113.166 207.78 112.843 208.131 112.607C208.486 112.369 208.887 112.249 209.334 112.249C209.427 112.249 209.537 112.253 209.663 112.259C209.792 112.266 209.893 112.274 209.966 112.284V113.706C209.906 113.689 209.8 113.671 209.648 113.651C209.495 113.628 209.343 113.616 209.19 113.616C208.839 113.616 208.526 113.691 208.251 113.84C207.979 113.986 207.763 114.19 207.604 114.452C207.445 114.71 207.366 115.005 207.366 115.337V120H205.879ZM216.444 115.466V120H214.957V112.364H216.384V113.607H216.479C216.654 113.202 216.929 112.877 217.304 112.632C217.682 112.387 218.157 112.264 218.731 112.264C219.251 112.264 219.707 112.374 220.098 112.592C220.489 112.808 220.792 113.129 221.008 113.557C221.223 113.984 221.331 114.513 221.331 115.143V120H219.844V115.322C219.844 114.768 219.7 114.336 219.412 114.024C219.123 113.709 218.727 113.552 218.224 113.552C217.879 113.552 217.572 113.626 217.304 113.776C217.039 113.925 216.828 114.143 216.672 114.432C216.52 114.717 216.444 115.062 216.444 115.466ZM228.162 116.833V112.364H229.653V120H228.192V118.678H228.112C227.936 119.085 227.655 119.425 227.267 119.697C226.882 119.965 226.404 120.099 225.83 120.099C225.34 120.099 224.905 119.992 224.528 119.776C224.153 119.558 223.858 119.234 223.643 118.807C223.431 118.379 223.324 117.851 223.324 117.221V112.364H224.811V117.042C224.811 117.562 224.955 117.977 225.244 118.285C225.532 118.593 225.906 118.747 226.367 118.747C226.646 118.747 226.922 118.678 227.197 118.538C227.476 118.399 227.706 118.189 227.888 117.907C228.074 117.625 228.165 117.267 228.162 116.833ZM231.651 120V112.364H233.078V113.607H233.172C233.331 113.186 233.591 112.857 233.953 112.622C234.314 112.384 234.746 112.264 235.25 112.264C235.761 112.264 236.188 112.384 236.533 112.622C236.881 112.861 237.138 113.189 237.303 113.607H237.383C237.565 113.199 237.855 112.874 238.253 112.632C238.651 112.387 239.125 112.264 239.675 112.264C240.368 112.264 240.933 112.481 241.37 112.915C241.811 113.35 242.031 114.004 242.031 114.879V120H240.545V115.018C240.545 114.501 240.404 114.127 240.122 113.895C239.841 113.663 239.504 113.547 239.113 113.547C238.629 113.547 238.253 113.696 237.984 113.994C237.716 114.289 237.582 114.669 237.582 115.133V120H236.1V114.924C236.1 114.51 235.971 114.177 235.712 113.925C235.454 113.673 235.118 113.547 234.703 113.547C234.421 113.547 234.161 113.621 233.923 113.771C233.687 113.916 233.497 114.12 233.351 114.382C233.208 114.644 233.137 114.947 233.137 115.292V120H231.651ZM244.143 120V109.818H245.63V113.602H245.719C245.805 113.442 245.929 113.259 246.092 113.05C246.254 112.841 246.48 112.659 246.768 112.503C247.056 112.344 247.438 112.264 247.911 112.264C248.528 112.264 249.078 112.42 249.562 112.732C250.046 113.043 250.425 113.492 250.701 114.079C250.979 114.665 251.118 115.371 251.118 116.197C251.118 117.022 250.981 117.73 250.706 118.32C250.43 118.906 250.053 119.359 249.572 119.677C249.091 119.992 248.543 120.149 247.926 120.149C247.462 120.149 247.083 120.071 246.788 119.915C246.496 119.76 246.268 119.577 246.102 119.369C245.936 119.16 245.809 118.974 245.719 118.812H245.595V120H244.143ZM245.6 116.182C245.6 116.719 245.678 117.189 245.833 117.594C245.989 117.998 246.215 118.315 246.509 118.543C246.804 118.769 247.166 118.881 247.593 118.881C248.037 118.881 248.409 118.764 248.707 118.528C249.005 118.29 249.231 117.967 249.383 117.559C249.539 117.151 249.617 116.692 249.617 116.182C249.617 115.678 249.541 115.226 249.388 114.825C249.239 114.424 249.014 114.107 248.712 113.875C248.414 113.643 248.041 113.527 247.593 113.527C247.162 113.527 246.798 113.638 246.5 113.86C246.205 114.082 245.981 114.392 245.828 114.79C245.676 115.187 245.6 115.652 245.6 116.182ZM256.079 120.154C255.326 120.154 254.678 119.993 254.135 119.672C253.594 119.347 253.177 118.891 252.882 118.305C252.59 117.715 252.444 117.024 252.444 116.232C252.444 115.449 252.59 114.76 252.882 114.163C253.177 113.567 253.588 113.101 254.115 112.766C254.645 112.432 255.265 112.264 255.974 112.264C256.405 112.264 256.823 112.335 257.227 112.478C257.631 112.621 257.994 112.844 258.316 113.149C258.637 113.454 258.891 113.85 259.076 114.337C259.262 114.821 259.355 115.41 259.355 116.102V116.629H253.285V115.516H257.898C257.898 115.125 257.819 114.778 257.66 114.477C257.5 114.172 257.277 113.931 256.988 113.756C256.703 113.58 256.369 113.492 255.984 113.492C255.566 113.492 255.202 113.595 254.89 113.8C254.582 114.003 254.343 114.268 254.174 114.596C254.009 114.921 253.926 115.274 253.926 115.655V116.525C253.926 117.035 254.015 117.469 254.194 117.827C254.377 118.185 254.63 118.459 254.955 118.648C255.28 118.833 255.659 118.926 256.093 118.926C256.375 118.926 256.632 118.886 256.864 118.807C257.096 118.724 257.297 118.601 257.466 118.439C257.635 118.277 257.764 118.076 257.853 117.837L259.26 118.091C259.148 118.505 258.946 118.868 258.654 119.18C258.366 119.488 258.003 119.728 257.565 119.901C257.131 120.07 256.635 120.154 256.079 120.154ZM261.004 120V112.364H262.441V113.577H262.521C262.66 113.166 262.905 112.843 263.256 112.607C263.611 112.369 264.012 112.249 264.459 112.249C264.552 112.249 264.662 112.253 264.788 112.259C264.917 112.266 265.018 112.274 265.091 112.284V113.706C265.031 113.689 264.925 113.671 264.773 113.651C264.62 113.628 264.468 113.616 264.315 113.616C263.964 113.616 263.651 113.691 263.376 113.84C263.104 113.986 262.888 114.19 262.729 114.452C262.57 114.71 262.491 115.005 262.491 115.337V120H261.004ZM273.647 112.364V113.557H269.476V112.364H273.647ZM270.594 110.534H272.081V117.758C272.081 118.046 272.124 118.263 272.21 118.409C272.296 118.552 272.407 118.649 272.543 118.702C272.682 118.752 272.833 118.777 272.996 118.777C273.115 118.777 273.219 118.769 273.309 118.752C273.398 118.736 273.468 118.722 273.518 118.712L273.786 119.94C273.7 119.973 273.577 120.007 273.418 120.04C273.259 120.076 273.06 120.096 272.822 120.099C272.431 120.106 272.066 120.036 271.728 119.891C271.39 119.745 271.116 119.519 270.908 119.214C270.699 118.91 270.594 118.527 270.594 118.066V110.534ZM278.426 120.154C277.71 120.154 277.085 119.99 276.552 119.662C276.018 119.334 275.604 118.875 275.309 118.285C275.014 117.695 274.866 117.005 274.866 116.217C274.866 115.424 275.014 114.732 275.309 114.138C275.604 113.545 276.018 113.085 276.552 112.756C277.085 112.428 277.71 112.264 278.426 112.264C279.142 112.264 279.767 112.428 280.3 112.756C280.834 113.085 281.248 113.545 281.543 114.138C281.838 114.732 281.986 115.424 281.986 116.217C281.986 117.005 281.838 117.695 281.543 118.285C281.248 118.875 280.834 119.334 280.3 119.662C279.767 119.99 279.142 120.154 278.426 120.154ZM278.431 118.906C278.895 118.906 279.279 118.784 279.584 118.538C279.889 118.293 280.115 117.967 280.26 117.559C280.41 117.151 280.484 116.702 280.484 116.212C280.484 115.724 280.41 115.277 280.26 114.869C280.115 114.458 279.889 114.129 279.584 113.88C279.279 113.631 278.895 113.507 278.431 113.507C277.964 113.507 277.576 113.631 277.267 113.88C276.963 114.129 276.736 114.458 276.586 114.869C276.441 115.277 276.368 115.724 276.368 116.212C276.368 116.702 276.441 117.151 276.586 117.559C276.736 117.967 276.963 118.293 277.267 118.538C277.576 118.784 277.964 118.906 278.431 118.906ZM290.566 120.154C289.827 120.154 289.191 119.987 288.657 119.652C288.127 119.314 287.719 118.848 287.434 118.255C287.149 117.662 287.007 116.982 287.007 116.217C287.007 115.441 287.153 114.757 287.444 114.163C287.736 113.567 288.147 113.101 288.677 112.766C289.208 112.432 289.832 112.264 290.552 112.264C291.132 112.264 291.649 112.372 292.103 112.587C292.557 112.799 292.923 113.098 293.201 113.482C293.483 113.867 293.651 114.316 293.704 114.83H292.257C292.177 114.472 291.995 114.163 291.71 113.905C291.428 113.646 291.05 113.517 290.576 113.517C290.162 113.517 289.799 113.626 289.488 113.845C289.179 114.061 288.939 114.369 288.767 114.77C288.594 115.168 288.508 115.638 288.508 116.182C288.508 116.739 288.593 117.219 288.762 117.624C288.931 118.028 289.169 118.341 289.478 118.563C289.789 118.785 290.156 118.896 290.576 118.896C290.858 118.896 291.113 118.845 291.342 118.742C291.574 118.636 291.768 118.485 291.924 118.29C292.083 118.094 292.194 117.859 292.257 117.584H293.704C293.651 118.078 293.49 118.518 293.221 118.906C292.953 119.294 292.593 119.599 292.142 119.821C291.695 120.043 291.17 120.154 290.566 120.154ZM298.51 120.154C297.794 120.154 297.169 119.99 296.636 119.662C296.102 119.334 295.688 118.875 295.393 118.285C295.098 117.695 294.95 117.005 294.95 116.217C294.95 115.424 295.098 114.732 295.393 114.138C295.688 113.545 296.102 113.085 296.636 112.756C297.169 112.428 297.794 112.264 298.51 112.264C299.226 112.264 299.851 112.428 300.384 112.756C300.918 113.085 301.332 113.545 301.627 114.138C301.922 114.732 302.07 115.424 302.07 116.217C302.07 117.005 301.922 117.695 301.627 118.285C301.332 118.875 300.918 119.334 300.384 119.662C299.851 119.99 299.226 120.154 298.51 120.154ZM298.515 118.906C298.979 118.906 299.363 118.784 299.668 118.538C299.973 118.293 300.199 117.967 300.344 117.559C300.494 117.151 300.568 116.702 300.568 116.212C300.568 115.724 300.494 115.277 300.344 114.869C300.199 114.458 299.973 114.129 299.668 113.88C299.363 113.631 298.979 113.507 298.515 113.507C298.047 113.507 297.66 113.631 297.351 113.88C297.047 114.129 296.82 114.458 296.67 114.869C296.525 115.277 296.452 115.724 296.452 116.212C296.452 116.702 296.525 117.151 296.67 117.559C296.82 117.967 297.047 118.293 297.351 118.538C297.66 118.784 298.047 118.906 298.515 118.906ZM305.215 115.466V120H303.729V112.364H305.156V113.607H305.25C305.426 113.202 305.701 112.877 306.075 112.632C306.453 112.387 306.929 112.264 307.502 112.264C308.023 112.264 308.478 112.374 308.869 112.592C309.261 112.808 309.564 113.129 309.779 113.557C309.995 113.984 310.102 114.513 310.102 115.143V120H308.616V115.322C308.616 114.768 308.472 114.336 308.183 114.024C307.895 113.709 307.499 113.552 306.995 113.552C306.65 113.552 306.344 113.626 306.075 113.776C305.81 113.925 305.6 114.143 305.444 114.432C305.292 114.717 305.215 115.062 305.215 115.466ZM315.73 112.364V113.557H311.415V112.364H315.73ZM312.598 120V111.479C312.598 111.001 312.703 110.605 312.911 110.29C313.12 109.972 313.397 109.735 313.742 109.58C314.086 109.42 314.461 109.341 314.865 109.341C315.163 109.341 315.419 109.366 315.631 109.415C315.843 109.462 316 109.505 316.103 109.545L315.755 110.748C315.685 110.728 315.596 110.705 315.487 110.678C315.377 110.648 315.245 110.634 315.089 110.634C314.728 110.634 314.469 110.723 314.313 110.902C314.161 111.081 314.085 111.339 314.085 111.678V120H312.598ZM317.264 120V112.364H318.75V120H317.264ZM318.015 111.185C317.756 111.185 317.534 111.099 317.348 110.927C317.166 110.751 317.075 110.542 317.075 110.3C317.075 110.055 317.166 109.846 317.348 109.674C317.534 109.498 317.756 109.411 318.015 109.411C318.273 109.411 318.494 109.498 318.676 109.674C318.861 109.846 318.954 110.055 318.954 110.3C318.954 110.542 318.861 110.751 318.676 110.927C318.494 111.099 318.273 111.185 318.015 111.185ZM320.75 120V112.364H322.187V113.577H322.267C322.406 113.166 322.651 112.843 323.002 112.607C323.357 112.369 323.758 112.249 324.206 112.249C324.298 112.249 324.408 112.253 324.534 112.259C324.663 112.266 324.764 112.274 324.837 112.284V113.706C324.777 113.689 324.671 113.671 324.519 113.651C324.366 113.628 324.214 113.616 324.061 113.616C323.71 113.616 323.397 113.691 323.122 113.84C322.85 113.986 322.634 114.19 322.475 114.452C322.316 114.71 322.237 115.005 322.237 115.337V120H320.75ZM326.123 120V112.364H327.55V113.607H327.645C327.804 113.186 328.064 112.857 328.425 112.622C328.786 112.384 329.219 112.264 329.723 112.264C330.233 112.264 330.661 112.384 331.005 112.622C331.353 112.861 331.61 113.189 331.776 113.607H331.856C332.038 113.199 332.328 112.874 332.726 112.632C333.123 112.387 333.597 112.264 334.147 112.264C334.84 112.264 335.405 112.481 335.843 112.915C336.284 113.35 336.504 114.004 336.504 114.879V120H335.017V115.018C335.017 114.501 334.877 114.127 334.595 113.895C334.313 113.663 333.977 113.547 333.586 113.547C333.102 113.547 332.726 113.696 332.457 113.994C332.189 114.289 332.054 114.669 332.054 115.133V120H330.573V114.924C330.573 114.51 330.444 114.177 330.185 113.925C329.927 113.673 329.59 113.547 329.176 113.547C328.894 113.547 328.634 113.621 328.395 113.771C328.16 113.916 327.969 114.12 327.824 114.382C327.681 114.644 327.61 114.947 327.61 115.292V120H326.123ZM345.06 120.149C344.444 120.149 343.893 119.992 343.41 119.677C342.929 119.359 342.551 118.906 342.276 118.32C342.004 117.73 341.868 117.022 341.868 116.197C341.868 115.371 342.006 114.665 342.281 114.079C342.559 113.492 342.941 113.043 343.424 112.732C343.908 112.42 344.457 112.264 345.07 112.264C345.544 112.264 345.925 112.344 346.214 112.503C346.505 112.659 346.731 112.841 346.89 113.05C347.052 113.259 347.178 113.442 347.267 113.602H347.357V109.818H348.843V120H347.392V118.812H347.267C347.178 118.974 347.049 119.16 346.88 119.369C346.714 119.577 346.485 119.76 346.194 119.915C345.902 120.071 345.524 120.149 345.06 120.149ZM345.388 118.881C345.816 118.881 346.177 118.769 346.472 118.543C346.77 118.315 346.996 117.998 347.148 117.594C347.304 117.189 347.382 116.719 347.382 116.182C347.382 115.652 347.306 115.187 347.153 114.79C347.001 114.392 346.777 114.082 346.482 113.86C346.187 113.638 345.822 113.527 345.388 113.527C344.941 113.527 344.568 113.643 344.27 113.875C343.971 114.107 343.746 114.424 343.593 114.825C343.444 115.226 343.37 115.678 343.37 116.182C343.37 116.692 343.446 117.151 343.598 117.559C343.751 117.967 343.976 118.29 344.275 118.528C344.576 118.764 344.947 118.881 345.388 118.881ZM354.256 120.154C353.504 120.154 352.856 119.993 352.312 119.672C351.772 119.347 351.355 118.891 351.06 118.305C350.768 117.715 350.622 117.024 350.622 116.232C350.622 115.449 350.768 114.76 351.06 114.163C351.355 113.567 351.766 113.101 352.293 112.766C352.823 112.432 353.443 112.264 354.152 112.264C354.583 112.264 355 112.335 355.405 112.478C355.809 112.621 356.172 112.844 356.494 113.149C356.815 113.454 357.069 113.85 357.254 114.337C357.44 114.821 357.533 115.41 357.533 116.102V116.629H351.462V115.516H356.076C356.076 115.125 355.996 114.778 355.837 114.477C355.678 114.172 355.454 113.931 355.166 113.756C354.881 113.58 354.546 113.492 354.162 113.492C353.744 113.492 353.38 113.595 353.068 113.8C352.76 114.003 352.521 114.268 352.352 114.596C352.186 114.921 352.104 115.274 352.104 115.655V116.525C352.104 117.035 352.193 117.469 352.372 117.827C352.554 118.185 352.808 118.459 353.133 118.648C353.458 118.833 353.837 118.926 354.271 118.926C354.553 118.926 354.81 118.886 355.042 118.807C355.274 118.724 355.474 118.601 355.643 118.439C355.812 118.277 355.942 118.076 356.031 117.837L357.438 118.091C357.325 118.505 357.123 118.868 356.832 119.18C356.543 119.488 356.18 119.728 355.743 119.901C355.309 120.07 354.813 120.154 354.256 120.154ZM360.668 109.818V120H359.182V109.818H360.668ZM362.668 120V112.364H364.155V120H362.668ZM363.419 111.185C363.16 111.185 362.938 111.099 362.753 110.927C362.57 110.751 362.479 110.542 362.479 110.3C362.479 110.055 362.57 109.846 362.753 109.674C362.938 109.498 363.16 109.411 363.419 109.411C363.677 109.411 363.898 109.498 364.08 109.674C364.266 109.846 364.359 110.055 364.359 110.3C364.359 110.542 364.266 110.751 364.08 110.927C363.898 111.099 363.677 111.185 363.419 111.185ZM372.687 112.364L369.918 120H368.327L365.553 112.364H367.149L369.083 118.24H369.162L371.091 112.364H372.687ZM377.116 120.154C376.363 120.154 375.715 119.993 375.172 119.672C374.632 119.347 374.214 118.891 373.919 118.305C373.627 117.715 373.481 117.024 373.481 116.232C373.481 115.449 373.627 114.76 373.919 114.163C374.214 113.567 374.625 113.101 375.152 112.766C375.682 112.432 376.302 112.264 377.011 112.264C377.442 112.264 377.86 112.335 378.264 112.478C378.668 112.621 379.031 112.844 379.353 113.149C379.674 113.454 379.928 113.85 380.114 114.337C380.299 114.821 380.392 115.41 380.392 116.102V116.629H374.322V115.516H378.935C378.935 115.125 378.856 114.778 378.697 114.477C378.538 114.172 378.314 113.931 378.025 113.756C377.74 113.58 377.406 113.492 377.021 113.492C376.604 113.492 376.239 113.595 375.927 113.8C375.619 114.003 375.381 114.268 375.212 114.596C375.046 114.921 374.963 115.274 374.963 115.655V116.525C374.963 117.035 375.052 117.469 375.231 117.827C375.414 118.185 375.667 118.459 375.992 118.648C376.317 118.833 376.696 118.926 377.131 118.926C377.412 118.926 377.669 118.886 377.901 118.807C378.133 118.724 378.334 118.601 378.503 118.439C378.672 118.277 378.801 118.076 378.891 117.837L380.297 118.091C380.185 118.505 379.983 118.868 379.691 119.18C379.403 119.488 379.04 119.728 378.602 119.901C378.168 120.07 377.672 120.154 377.116 120.154ZM382.041 120V112.364H383.478V113.577H383.558C383.697 113.166 383.942 112.843 384.293 112.607C384.648 112.369 385.049 112.249 385.497 112.249C385.589 112.249 385.699 112.253 385.825 112.259C385.954 112.266 386.055 112.274 386.128 112.284V113.706C386.068 113.689 385.962 113.671 385.81 113.651C385.657 113.628 385.505 113.616 385.352 113.616C385.001 113.616 384.688 113.691 384.413 113.84C384.141 113.986 383.926 114.19 383.766 114.452C383.607 114.71 383.528 115.005 383.528 115.337V120H382.041ZM388.586 122.864C388.364 122.864 388.162 122.845 387.98 122.809C387.798 122.776 387.662 122.739 387.572 122.7L387.93 121.482C388.202 121.554 388.444 121.586 388.656 121.576C388.868 121.566 389.055 121.487 389.218 121.337C389.383 121.188 389.529 120.945 389.655 120.607L389.839 120.099L387.045 112.364H388.636L390.57 118.29H390.65L392.584 112.364H394.179L391.032 121.019C390.887 121.417 390.701 121.753 390.476 122.028C390.25 122.307 389.982 122.516 389.67 122.655C389.359 122.794 388.997 122.864 388.586 122.864Z" fill="#231F20"/>
  <rect x="92.5" y="148.5" width="319" height="42" rx="5.5" fill="white"/>
  <rect x="92.5" y="148.5" width="319" height="42" rx="5.5" stroke="#E4E4E4"/>
  <path d="M112.634 164.818V175H111.401V166.111H111.341L108.855 167.761V166.509L111.401 164.818H112.634ZM115.562 175V174.105L118.923 170.426C119.317 169.995 119.642 169.621 119.897 169.303C120.152 168.981 120.341 168.679 120.464 168.398C120.59 168.113 120.653 167.814 120.653 167.503C120.653 167.145 120.567 166.835 120.394 166.573C120.225 166.311 119.993 166.109 119.698 165.967C119.403 165.824 119.072 165.753 118.704 165.753C118.313 165.753 117.971 165.834 117.68 165.996C117.391 166.156 117.168 166.379 117.009 166.668C116.853 166.956 116.775 167.294 116.775 167.682H115.602C115.602 167.085 115.739 166.562 116.014 166.111C116.289 165.66 116.664 165.309 117.138 165.057C117.615 164.805 118.15 164.679 118.744 164.679C119.34 164.679 119.869 164.805 120.33 165.057C120.79 165.309 121.152 165.648 121.413 166.076C121.675 166.504 121.806 166.979 121.806 167.503C121.806 167.877 121.738 168.244 121.602 168.602C121.47 168.956 121.238 169.352 120.906 169.79C120.578 170.224 120.122 170.754 119.539 171.381L117.252 173.827V173.906H121.985V175H115.562ZM127.479 175.139C126.822 175.139 126.237 175.027 125.724 174.801C125.213 174.576 124.807 174.263 124.506 173.862C124.207 173.457 124.045 172.988 124.018 172.455H125.271C125.298 172.783 125.411 173.066 125.609 173.305C125.808 173.54 126.068 173.722 126.39 173.852C126.711 173.981 127.068 174.045 127.459 174.045C127.896 174.045 128.284 173.969 128.622 173.817C128.96 173.664 129.225 173.452 129.418 173.18C129.61 172.909 129.706 172.594 129.706 172.236C129.706 171.861 129.613 171.531 129.428 171.246C129.242 170.958 128.97 170.733 128.612 170.57C128.254 170.408 127.817 170.327 127.3 170.327H126.484V169.233H127.3C127.704 169.233 128.059 169.16 128.364 169.014C128.672 168.868 128.912 168.663 129.085 168.398C129.26 168.133 129.348 167.821 129.348 167.463C129.348 167.118 129.272 166.818 129.119 166.563C128.967 166.308 128.751 166.109 128.473 165.967C128.198 165.824 127.873 165.753 127.499 165.753C127.147 165.753 126.816 165.817 126.504 165.947C126.196 166.073 125.944 166.257 125.749 166.499C125.553 166.737 125.447 167.026 125.43 167.364H124.237C124.257 166.83 124.418 166.363 124.719 165.962C125.021 165.557 125.415 165.242 125.903 165.017C126.393 164.792 126.932 164.679 127.518 164.679C128.148 164.679 128.688 164.807 129.139 165.062C129.59 165.314 129.936 165.647 130.178 166.061C130.42 166.475 130.541 166.923 130.541 167.403C130.541 167.977 130.39 168.466 130.089 168.87C129.79 169.274 129.384 169.554 128.871 169.71V169.79C129.514 169.896 130.016 170.169 130.377 170.61C130.738 171.048 130.919 171.589 130.919 172.236C130.919 172.789 130.768 173.286 130.467 173.727C130.168 174.165 129.761 174.509 129.244 174.761C128.727 175.013 128.138 175.139 127.479 175.139ZM132.714 172.912V171.898L137.188 164.818H137.924V166.389H137.427L134.046 171.739V171.818H140.072V172.912H132.714ZM137.506 175V172.604V172.131V164.818H138.68V175H137.506ZM145.117 175.139C144.533 175.139 144.008 175.023 143.541 174.791C143.073 174.559 142.699 174.241 142.417 173.837C142.135 173.432 141.981 172.972 141.955 172.455H143.148C143.194 172.915 143.403 173.296 143.774 173.598C144.149 173.896 144.596 174.045 145.117 174.045C145.534 174.045 145.905 173.948 146.23 173.752C146.558 173.557 146.815 173.288 147.001 172.947C147.19 172.602 147.284 172.213 147.284 171.778C147.284 171.334 147.186 170.938 146.991 170.59C146.799 170.239 146.534 169.962 146.195 169.76C145.857 169.558 145.471 169.455 145.037 169.452C144.726 169.448 144.406 169.496 144.078 169.596C143.749 169.692 143.479 169.816 143.267 169.969L142.114 169.83L142.73 164.818H148.02V165.912H143.764L143.406 168.915H143.466C143.675 168.749 143.937 168.612 144.252 168.502C144.566 168.393 144.895 168.338 145.236 168.338C145.859 168.338 146.414 168.487 146.901 168.786C147.392 169.08 147.776 169.485 148.055 169.999C148.337 170.512 148.477 171.099 148.477 171.759C148.477 172.408 148.332 172.988 148.04 173.499C147.752 174.006 147.354 174.407 146.847 174.702C146.34 174.993 145.763 175.139 145.117 175.139ZM153.833 175.139C153.415 175.133 152.998 175.053 152.58 174.901C152.163 174.748 151.781 174.491 151.437 174.13C151.092 173.765 150.815 173.273 150.607 172.653C150.398 172.03 150.293 171.248 150.293 170.307C150.293 169.405 150.378 168.607 150.547 167.911C150.716 167.211 150.961 166.623 151.283 166.146C151.604 165.665 151.992 165.3 152.446 165.052C152.903 164.803 153.419 164.679 153.992 164.679C154.562 164.679 155.069 164.793 155.513 165.022C155.961 165.247 156.326 165.562 156.607 165.967C156.889 166.371 157.071 166.837 157.154 167.364H155.941C155.828 166.906 155.61 166.527 155.285 166.225C154.96 165.924 154.529 165.773 153.992 165.773C153.203 165.773 152.582 166.116 152.128 166.802C151.677 167.488 151.45 168.451 151.447 169.69H151.526C151.712 169.409 151.932 169.168 152.188 168.969C152.446 168.767 152.731 168.612 153.043 168.502C153.354 168.393 153.684 168.338 154.032 168.338C154.615 168.338 155.149 168.484 155.633 168.776C156.117 169.064 156.504 169.463 156.796 169.974C157.088 170.481 157.234 171.062 157.234 171.719C157.234 172.348 157.093 172.925 156.811 173.449C156.529 173.969 156.133 174.384 155.623 174.692C155.116 174.997 154.519 175.146 153.833 175.139ZM153.833 174.045C154.251 174.045 154.625 173.941 154.957 173.732C155.291 173.523 155.555 173.243 155.747 172.892C155.943 172.541 156.04 172.15 156.04 171.719C156.04 171.298 155.946 170.915 155.757 170.57C155.571 170.222 155.315 169.946 154.987 169.74C154.662 169.535 154.29 169.432 153.873 169.432C153.558 169.432 153.265 169.495 152.993 169.621C152.721 169.743 152.482 169.912 152.277 170.128C152.075 170.343 151.916 170.59 151.8 170.869C151.684 171.144 151.626 171.434 151.626 171.739C151.626 172.143 151.72 172.521 151.909 172.872C152.101 173.223 152.363 173.507 152.695 173.722C153.029 173.938 153.409 174.045 153.833 174.045Z" fill="#231F20"/>
  <mask id="path-9-inside-1_1_8942" fill="white">
  <path d="M12 223H492V290H12V223Z"/>
  </mask>
  <path d="M12 223H492V290H12V223Z" fill="white"/>
  <path d="M12 224H492V222H12V224Z" fill="black" fill-opacity="0.1" mask="url(#path-9-inside-1_1_8942)"/>
  <rect x="28" y="239" width="220" height="35" rx="6" fill="#FFCD00"/>
  <rect x="28.5" y="239.5" width="219" height="34" rx="5.5" stroke="black" stroke-opacity="0.1"/>
  <path d="M81.5 253.5L76 259L73.5 256.5" stroke="#231F20" stroke-linecap="round" stroke-linejoin="round"/>
  <path d="M101.219 255.254H99.3601C99.3071 254.949 99.2093 254.679 99.0668 254.443C98.9242 254.205 98.7469 254.002 98.5348 253.837C98.3227 253.671 98.0807 253.547 97.8089 253.464C97.5405 253.378 97.2505 253.335 96.9389 253.335C96.3854 253.335 95.8949 253.474 95.4673 253.752C95.0398 254.027 94.705 254.432 94.4631 254.965C94.2211 255.496 94.1001 256.143 94.1001 256.909C94.1001 257.688 94.2211 258.344 94.4631 258.878C94.7083 259.408 95.0431 259.809 95.4673 260.081C95.8949 260.349 96.3838 260.484 96.9339 260.484C97.2389 260.484 97.5239 260.444 97.7891 260.364C98.0575 260.281 98.2978 260.161 98.5099 260.001C98.7254 259.842 98.906 259.647 99.0518 259.415C99.201 259.183 99.3037 258.918 99.3601 258.619L101.219 258.629C101.15 259.113 100.999 259.567 100.767 259.991C100.538 260.416 100.238 260.79 99.8672 261.115C99.496 261.437 99.0618 261.688 98.5646 261.871C98.0675 262.05 97.5156 262.139 96.9091 262.139C96.0142 262.139 95.2154 261.932 94.5128 261.518C93.8101 261.103 93.2566 260.505 92.8523 259.723C92.4479 258.941 92.2457 258.003 92.2457 256.909C92.2457 255.812 92.4496 254.874 92.8572 254.095C93.2649 253.313 93.8201 252.715 94.5227 252.3C95.2254 251.886 96.0208 251.679 96.9091 251.679C97.4759 251.679 98.0028 251.759 98.4901 251.918C98.9773 252.077 99.4115 252.31 99.7926 252.619C100.174 252.924 100.487 253.298 100.732 253.742C100.981 254.183 101.143 254.687 101.219 255.254ZM106.16 262.149C105.414 262.149 104.768 261.985 104.221 261.657C103.674 261.329 103.25 260.87 102.948 260.28C102.65 259.69 102.501 259 102.501 258.212C102.501 257.423 102.65 256.732 102.948 256.138C103.25 255.545 103.674 255.085 104.221 254.756C104.768 254.428 105.414 254.264 106.16 254.264C106.906 254.264 107.552 254.428 108.099 254.756C108.646 255.085 109.068 255.545 109.367 256.138C109.668 256.732 109.819 257.423 109.819 258.212C109.819 259 109.668 259.69 109.367 260.28C109.068 260.87 108.646 261.329 108.099 261.657C107.552 261.985 106.906 262.149 106.16 262.149ZM106.17 260.707C106.574 260.707 106.912 260.596 107.184 260.374C107.456 260.149 107.658 259.847 107.791 259.469C107.927 259.092 107.994 258.671 107.994 258.207C107.994 257.739 107.927 257.317 107.791 256.939C107.658 256.558 107.456 256.254 107.184 256.029C106.912 255.804 106.574 255.691 106.17 255.691C105.756 255.691 105.411 255.804 105.136 256.029C104.864 256.254 104.66 256.558 104.524 256.939C104.392 257.317 104.325 257.739 104.325 258.207C104.325 258.671 104.392 259.092 104.524 259.469C104.66 259.847 104.864 260.149 105.136 260.374C105.411 260.596 105.756 260.707 106.17 260.707ZM113.146 257.526V262H111.347V254.364H113.067V255.661H113.156C113.332 255.234 113.612 254.894 113.996 254.642C114.384 254.39 114.863 254.264 115.433 254.264C115.96 254.264 116.419 254.377 116.81 254.602C117.205 254.828 117.51 255.154 117.725 255.582C117.944 256.009 118.052 256.528 118.048 257.138V262H116.249V257.416C116.249 256.906 116.116 256.506 115.851 256.218C115.589 255.93 115.226 255.786 114.762 255.786C114.447 255.786 114.167 255.855 113.922 255.994C113.68 256.13 113.489 256.327 113.35 256.586C113.214 256.844 113.146 257.158 113.146 257.526ZM123.746 254.364V255.756H119.232V254.364H123.746ZM120.36 262V253.643C120.36 253.129 120.466 252.701 120.678 252.36C120.894 252.019 121.182 251.763 121.543 251.594C121.905 251.425 122.306 251.341 122.746 251.341C123.058 251.341 123.335 251.366 123.577 251.415C123.819 251.465 123.998 251.51 124.114 251.55L123.756 252.942C123.679 252.919 123.583 252.895 123.467 252.872C123.351 252.846 123.222 252.832 123.08 252.832C122.745 252.832 122.508 252.914 122.369 253.076C122.233 253.235 122.165 253.464 122.165 253.762V262H120.36ZM125.155 262V254.364H126.955V262H125.155ZM126.06 253.28C125.775 253.28 125.53 253.185 125.324 252.996C125.119 252.804 125.016 252.574 125.016 252.305C125.016 252.034 125.119 251.803 125.324 251.614C125.53 251.422 125.775 251.326 126.06 251.326C126.348 251.326 126.594 251.422 126.796 251.614C127.001 251.803 127.104 252.034 127.104 252.305C127.104 252.574 127.001 252.804 126.796 252.996C126.594 253.185 126.348 253.28 126.06 253.28ZM128.806 262V254.364H130.551V255.636H130.63C130.769 255.196 131.008 254.856 131.346 254.617C131.687 254.375 132.077 254.254 132.514 254.254C132.614 254.254 132.725 254.259 132.847 254.269C132.973 254.276 133.078 254.287 133.161 254.304V255.96C133.084 255.933 132.963 255.91 132.798 255.89C132.635 255.867 132.478 255.855 132.325 255.855C131.997 255.855 131.702 255.926 131.441 256.069C131.182 256.208 130.978 256.402 130.829 256.651C130.68 256.899 130.605 257.186 130.605 257.511V262H128.806ZM134.356 262V254.364H136.077V255.661H136.166C136.325 255.224 136.589 254.882 136.956 254.637C137.324 254.388 137.764 254.264 138.274 254.264C138.791 254.264 139.227 254.39 139.581 254.642C139.939 254.891 140.191 255.23 140.337 255.661H140.417C140.586 255.237 140.871 254.899 141.272 254.647C141.676 254.392 142.155 254.264 142.709 254.264C143.411 254.264 143.985 254.486 144.429 254.93C144.873 255.375 145.095 256.022 145.095 256.874V262H143.29V257.153C143.29 256.679 143.164 256.332 142.912 256.114C142.661 255.892 142.352 255.781 141.988 255.781C141.554 255.781 141.214 255.916 140.969 256.188C140.727 256.457 140.606 256.806 140.606 257.237V262H138.841V257.078C138.841 256.684 138.721 256.369 138.483 256.134C138.247 255.898 137.939 255.781 137.558 255.781C137.3 255.781 137.064 255.847 136.852 255.979C136.64 256.109 136.471 256.293 136.345 256.531C136.219 256.767 136.156 257.042 136.156 257.357V262H134.356ZM153.227 262.134C152.627 262.134 152.09 261.98 151.616 261.672C151.143 261.364 150.768 260.916 150.493 260.33C150.218 259.743 150.08 259.03 150.08 258.192C150.08 257.343 150.219 256.627 150.498 256.044C150.78 255.457 151.159 255.015 151.636 254.717C152.114 254.415 152.646 254.264 153.232 254.264C153.68 254.264 154.048 254.34 154.336 254.493C154.624 254.642 154.853 254.823 155.022 255.035C155.191 255.244 155.322 255.441 155.415 255.626H155.489V251.818H157.294V262H155.524V260.797H155.415C155.322 260.982 155.188 261.18 155.012 261.388C154.836 261.594 154.604 261.77 154.316 261.915C154.028 262.061 153.665 262.134 153.227 262.134ZM153.729 260.658C154.111 260.658 154.435 260.555 154.704 260.349C154.972 260.141 155.176 259.851 155.315 259.479C155.455 259.108 155.524 258.676 155.524 258.182C155.524 257.688 155.455 257.259 155.315 256.894C155.179 256.53 154.977 256.246 154.709 256.044C154.444 255.842 154.117 255.741 153.729 255.741C153.328 255.741 152.994 255.845 152.725 256.054C152.457 256.263 152.254 256.551 152.119 256.919C151.983 257.287 151.915 257.708 151.915 258.182C151.915 258.659 151.983 259.085 152.119 259.46C152.258 259.831 152.462 260.124 152.73 260.339C153.002 260.552 153.335 260.658 153.729 260.658ZM162.593 262.149C161.827 262.149 161.166 261.99 160.609 261.672C160.055 261.35 159.629 260.896 159.331 260.31C159.033 259.72 158.884 259.025 158.884 258.227C158.884 257.441 159.033 256.752 159.331 256.158C159.633 255.562 160.054 255.098 160.594 254.766C161.134 254.432 161.769 254.264 162.498 254.264C162.969 254.264 163.413 254.34 163.83 254.493C164.251 254.642 164.623 254.874 164.944 255.189C165.269 255.504 165.524 255.905 165.71 256.392C165.895 256.876 165.988 257.453 165.988 258.122V258.674H159.729V257.461H164.263C164.26 257.116 164.185 256.81 164.039 256.541C163.893 256.269 163.69 256.056 163.428 255.9C163.169 255.744 162.868 255.666 162.523 255.666C162.155 255.666 161.832 255.756 161.553 255.935C161.275 256.11 161.058 256.342 160.902 256.631C160.75 256.916 160.672 257.229 160.669 257.57V258.629C160.669 259.073 160.75 259.455 160.912 259.773C161.075 260.088 161.302 260.33 161.593 260.499C161.885 260.664 162.226 260.747 162.617 260.747C162.879 260.747 163.116 260.711 163.328 260.638C163.54 260.562 163.724 260.451 163.88 260.305C164.036 260.159 164.154 259.978 164.233 259.763L165.914 259.952C165.807 260.396 165.605 260.784 165.307 261.115C165.012 261.443 164.634 261.698 164.173 261.881C163.713 262.06 163.186 262.149 162.593 262.149ZM169.31 251.818V262H167.511V251.818H169.31ZM171.161 262V254.364H172.961V262H171.161ZM172.066 253.28C171.781 253.28 171.536 253.185 171.33 252.996C171.125 252.804 171.022 252.574 171.022 252.305C171.022 252.034 171.125 251.803 171.33 251.614C171.536 251.422 171.781 251.326 172.066 251.326C172.354 251.326 172.599 251.422 172.802 251.614C173.007 251.803 173.11 252.034 173.11 252.305C173.11 252.574 173.007 252.804 172.802 252.996C172.599 253.185 172.354 253.28 172.066 253.28ZM181.632 254.364L178.913 262H176.924L174.205 254.364H176.124L177.879 260.036H177.958L179.718 254.364H181.632ZM185.999 262.149C185.233 262.149 184.572 261.99 184.015 261.672C183.462 261.35 183.036 260.896 182.737 260.31C182.439 259.72 182.29 259.025 182.29 258.227C182.29 257.441 182.439 256.752 182.737 256.158C183.039 255.562 183.46 255.098 184 254.766C184.54 254.432 185.175 254.264 185.904 254.264C186.375 254.264 186.819 254.34 187.237 254.493C187.658 254.642 188.029 254.874 188.35 255.189C188.675 255.504 188.93 255.905 189.116 256.392C189.302 256.876 189.394 257.453 189.394 258.122V258.674H183.135V257.461H187.669C187.666 257.116 187.591 256.81 187.445 256.541C187.3 256.269 187.096 256.056 186.834 255.9C186.575 255.744 186.274 255.666 185.929 255.666C185.561 255.666 185.238 255.756 184.96 255.935C184.681 256.11 184.464 256.342 184.308 256.631C184.156 256.916 184.078 257.229 184.075 257.57V258.629C184.075 259.073 184.156 259.455 184.318 259.773C184.481 260.088 184.708 260.33 184.999 260.499C185.291 260.664 185.633 260.747 186.024 260.747C186.285 260.747 186.522 260.711 186.735 260.638C186.947 260.562 187.131 260.451 187.286 260.305C187.442 260.159 187.56 259.978 187.639 259.763L189.32 259.952C189.214 260.396 189.012 260.784 188.713 261.115C188.418 261.443 188.04 261.698 187.58 261.881C187.119 262.06 186.592 262.149 185.999 262.149ZM190.917 262V254.364H192.662V255.636H192.741C192.881 255.196 193.119 254.856 193.457 254.617C193.799 254.375 194.188 254.254 194.626 254.254C194.725 254.254 194.836 254.259 194.959 254.269C195.085 254.276 195.189 254.287 195.272 254.304V255.96C195.196 255.933 195.075 255.91 194.909 255.89C194.747 255.867 194.589 255.855 194.437 255.855C194.109 255.855 193.814 255.926 193.552 256.069C193.293 256.208 193.089 256.402 192.94 256.651C192.791 256.899 192.717 257.186 192.717 257.511V262H190.917ZM197.819 264.864C197.573 264.864 197.346 264.844 197.138 264.804C196.932 264.768 196.768 264.724 196.645 264.675L197.063 263.273C197.325 263.349 197.559 263.385 197.764 263.382C197.97 263.379 198.15 263.314 198.306 263.188C198.465 263.066 198.599 262.86 198.709 262.572L198.863 262.159L196.094 254.364H198.003L199.763 260.131H199.842L201.607 254.364H203.521L200.464 262.925C200.321 263.329 200.132 263.675 199.897 263.964C199.662 264.255 199.373 264.478 199.032 264.63C198.694 264.786 198.289 264.864 197.819 264.864Z" fill="#231F20"/>
  <rect x="256" y="239" width="220" height="35" rx="6" fill="white"/>
  <rect x="256.5" y="239.5" width="219" height="34" rx="5.5" stroke="black" stroke-opacity="0.1"/>
  <path d="M341 253.5L335 259.5" stroke="#231F20" stroke-linecap="round" stroke-linejoin="round"/>
  <path d="M335 253.5L341 259.5" stroke="#231F20" stroke-linecap="round" stroke-linejoin="round"/>
  <path d="M361.719 255.254H359.86C359.807 254.949 359.709 254.679 359.567 254.443C359.424 254.205 359.247 254.002 359.035 253.837C358.823 253.671 358.581 253.547 358.309 253.464C358.04 253.378 357.75 253.335 357.439 253.335C356.885 253.335 356.395 253.474 355.967 253.752C355.54 254.027 355.205 254.432 354.963 254.965C354.721 255.496 354.6 256.143 354.6 256.909C354.6 257.688 354.721 258.344 354.963 258.878C355.208 259.408 355.543 259.809 355.967 260.081C356.395 260.349 356.884 260.484 357.434 260.484C357.739 260.484 358.024 260.444 358.289 260.364C358.558 260.281 358.798 260.161 359.01 260.001C359.225 259.842 359.406 259.647 359.552 259.415C359.701 259.183 359.804 258.918 359.86 258.619L361.719 258.629C361.65 259.113 361.499 259.567 361.267 259.991C361.038 260.416 360.738 260.79 360.367 261.115C359.996 261.437 359.562 261.688 359.065 261.871C358.567 262.05 358.016 262.139 357.409 262.139C356.514 262.139 355.715 261.932 355.013 261.518C354.31 261.103 353.757 260.505 353.352 259.723C352.948 258.941 352.746 258.003 352.746 256.909C352.746 255.812 352.95 254.874 353.357 254.095C353.765 253.313 354.32 252.715 355.023 252.3C355.725 251.886 356.521 251.679 357.409 251.679C357.976 251.679 358.503 251.759 358.99 251.918C359.477 252.077 359.911 252.31 360.293 252.619C360.674 252.924 360.987 253.298 361.232 253.742C361.481 254.183 361.643 254.687 361.719 255.254ZM365.526 262.154C365.043 262.154 364.607 262.068 364.219 261.896C363.834 261.72 363.53 261.461 363.304 261.12C363.082 260.779 362.971 260.358 362.971 259.857C362.971 259.426 363.051 259.07 363.21 258.788C363.369 258.507 363.586 258.281 363.861 258.112C364.136 257.943 364.446 257.816 364.791 257.729C365.139 257.64 365.498 257.575 365.869 257.536C366.317 257.489 366.68 257.448 366.958 257.411C367.237 257.371 367.439 257.312 367.565 257.232C367.694 257.149 367.759 257.022 367.759 256.849V256.82C367.759 256.445 367.648 256.155 367.426 255.95C367.204 255.744 366.884 255.641 366.466 255.641C366.025 255.641 365.676 255.737 365.417 255.93C365.162 256.122 364.99 256.349 364.9 256.611L363.22 256.372C363.352 255.908 363.571 255.52 363.876 255.209C364.181 254.894 364.554 254.659 364.994 254.503C365.435 254.344 365.923 254.264 366.456 254.264C366.824 254.264 367.19 254.307 367.555 254.393C367.919 254.48 368.253 254.622 368.554 254.821C368.856 255.017 369.098 255.283 369.28 255.621C369.466 255.96 369.558 256.382 369.558 256.889V262H367.828V260.951H367.769C367.659 261.163 367.505 261.362 367.306 261.548C367.111 261.73 366.864 261.877 366.566 261.99C366.271 262.099 365.924 262.154 365.526 262.154ZM365.994 260.832C366.355 260.832 366.668 260.76 366.933 260.618C367.199 260.472 367.402 260.28 367.545 260.041C367.691 259.803 367.764 259.542 367.764 259.261V258.361C367.707 258.407 367.611 258.45 367.475 258.49C367.343 258.53 367.194 258.565 367.028 258.594C366.862 258.624 366.698 258.651 366.536 258.674C366.373 258.697 366.232 258.717 366.113 258.734C365.845 258.77 365.604 258.83 365.392 258.913C365.18 258.996 365.013 259.112 364.89 259.261C364.767 259.406 364.706 259.595 364.706 259.827C364.706 260.159 364.827 260.409 365.069 260.578C365.311 260.747 365.619 260.832 365.994 260.832ZM373.168 257.526V262H371.368V254.364H373.088V255.661H373.178C373.353 255.234 373.633 254.894 374.018 254.642C374.406 254.39 374.885 254.264 375.455 254.264C375.982 254.264 376.441 254.377 376.832 254.602C377.226 254.828 377.531 255.154 377.747 255.582C377.965 256.009 378.073 256.528 378.07 257.138V262H376.27V257.416C376.27 256.906 376.137 256.506 375.872 256.218C375.61 255.93 375.248 255.786 374.784 255.786C374.469 255.786 374.189 255.855 373.943 255.994C373.701 256.13 373.511 256.327 373.372 256.586C373.236 256.844 373.168 257.158 373.168 257.526ZM383.23 262.149C382.468 262.149 381.813 261.982 381.267 261.647C380.723 261.312 380.304 260.85 380.009 260.26C379.717 259.667 379.571 258.984 379.571 258.212C379.571 257.436 379.72 256.752 380.019 256.158C380.317 255.562 380.738 255.098 381.281 254.766C381.828 254.432 382.475 254.264 383.22 254.264C383.84 254.264 384.389 254.379 384.866 254.607C385.347 254.833 385.729 255.152 386.014 255.567C386.299 255.978 386.462 256.458 386.502 257.009H384.781C384.712 256.641 384.546 256.334 384.284 256.089C384.026 255.84 383.679 255.716 383.245 255.716C382.877 255.716 382.554 255.815 382.276 256.014C381.997 256.21 381.78 256.491 381.624 256.859C381.472 257.227 381.396 257.668 381.396 258.182C381.396 258.702 381.472 259.15 381.624 259.524C381.777 259.895 381.991 260.182 382.266 260.384C382.544 260.583 382.871 260.683 383.245 260.683C383.51 260.683 383.747 260.633 383.956 260.533C384.168 260.431 384.346 260.283 384.488 260.091C384.631 259.899 384.728 259.665 384.781 259.39H386.502C386.459 259.93 386.299 260.409 386.024 260.827C385.749 261.241 385.375 261.566 384.901 261.801C384.427 262.033 383.87 262.149 383.23 262.149ZM391.36 262.149C390.594 262.149 389.933 261.99 389.376 261.672C388.823 261.35 388.397 260.896 388.099 260.31C387.8 259.72 387.651 259.025 387.651 258.227C387.651 257.441 387.8 256.752 388.099 256.158C388.4 255.562 388.821 255.098 389.362 254.766C389.902 254.432 390.536 254.264 391.266 254.264C391.736 254.264 392.18 254.34 392.598 254.493C393.019 254.642 393.39 254.874 393.712 255.189C394.036 255.504 394.292 255.905 394.477 256.392C394.663 256.876 394.756 257.453 394.756 258.122V258.674H388.496V257.461H393.031C393.027 257.116 392.953 256.81 392.807 256.541C392.661 256.269 392.457 256.056 392.195 255.9C391.937 255.744 391.635 255.666 391.29 255.666C390.923 255.666 390.599 255.756 390.321 255.935C390.043 256.11 389.826 256.342 389.67 256.631C389.517 256.916 389.439 257.229 389.436 257.57V258.629C389.436 259.073 389.517 259.455 389.68 259.773C389.842 260.088 390.069 260.33 390.361 260.499C390.652 260.664 390.994 260.747 391.385 260.747C391.647 260.747 391.884 260.711 392.096 260.638C392.308 260.562 392.492 260.451 392.648 260.305C392.804 260.159 392.921 259.978 393.001 259.763L394.681 259.952C394.575 260.396 394.373 260.784 394.075 261.115C393.78 261.443 393.402 261.698 392.941 261.881C392.48 262.06 391.953 262.149 391.36 262.149ZM398.078 251.818V262H396.278V251.818H398.078Z" fill="#231F20"/>
  </g>
  </g>
  <defs>
  <filter id="filter0_dd_1_8942" x="0" y="0" width="504" height="312" filterUnits="userSpaceOnUse" color-interpolation-filters="sRGB">
  <feFlood flood-opacity="0" result="BackgroundImageFix"/>
  <feColorMatrix in="SourceAlpha" type="matrix" values="0 0 0 0 0 0 0 0 0 0 0 0 0 0 0 0 0 0 127 0" result="hardAlpha"/>
  <feMorphology radius="2" operator="erode" in="SourceAlpha" result="effect1_dropShadow_1_8942"/>
  <feOffset dy="4"/>
  <feGaussianBlur stdDeviation="3"/>
  <feColorMatrix type="matrix" values="0 0 0 0 0 0 0 0 0 0 0 0 0 0 0 0 0 0 0.05 0"/>
  <feBlend mode="normal" in2="BackgroundImageFix" result="effect1_dropShadow_1_8942"/>
  <feColorMatrix in="SourceAlpha" type="matrix" values="0 0 0 0 0 0 0 0 0 0 0 0 0 0 0 0 0 0 127 0" result="hardAlpha"/>
  <feMorphology radius="3" operator="erode" in="SourceAlpha" result="effect2_dropShadow_1_8942"/>
  <feOffset dy="10"/>
  <feGaussianBlur stdDeviation="7.5"/>
  <feColorMatrix type="matrix" values="0 0 0 0 0 0 0 0 0 0 0 0 0 0 0 0 0 0 0.1 0"/>
  <feBlend mode="normal" in2="effect1_dropShadow_1_8942" result="effect2_dropShadow_1_8942"/>
  <feBlend mode="normal" in="SourceGraphic" in2="effect2_dropShadow_1_8942" result="shape"/>
  </filter>
  <clipPath id="clip0_1_8942">
  <rect x="12" y="2" width="480" height="288" rx="16" fill="white"/>
  </clipPath>
  </defs>
</svg>