<svg width="700" height="171" viewBox="0 0 700 171" fill="none" xmlns="http://www.w3.org/2000/svg">
<g filter="url(#filter0_d_1_9040)">
<g clip-path="url(#clip0_1_9040)">
<rect x="2" width="696" height="167" rx="8" fill="white"/>
<rect width="696" height="65" transform="translate(2)" fill="#F5F5F5"/>
<path d="M27.9631 23.9091C27.9631 24.9962 27.7642 25.9309 27.3665 26.7131C26.9688 27.492 26.4235 28.0919 25.7308 28.5128C25.0414 28.9304 24.2576 29.1392 23.3793 29.1392C22.4976 29.1392 21.7105 28.9304 21.0178 28.5128C20.3284 28.0919 19.7848 27.4903 19.3871 26.7081C18.9893 25.9259 18.7905 24.9929 18.7905 23.9091C18.7905 22.822 18.9893 21.889 19.3871 21.1101C19.7848 20.3279 20.3284 19.728 21.0178 19.3104C21.7105 18.8894 22.4976 18.679 23.3793 18.679C24.2576 18.679 25.0414 18.8894 25.7308 19.3104C26.4235 19.728 26.9688 20.3279 27.3665 21.1101C27.7642 21.889 27.9631 22.822 27.9631 23.9091ZM26.4418 23.9091C26.4418 23.0805 26.3075 22.3828 26.0391 21.8161C25.7739 21.246 25.4093 20.8151 24.9453 20.5234C24.4846 20.2285 23.9626 20.081 23.3793 20.081C22.7926 20.081 22.2689 20.2285 21.8082 20.5234C21.3475 20.8151 20.983 21.246 20.7145 21.8161C20.4493 22.3828 20.3168 23.0805 20.3168 23.9091C20.3168 24.7377 20.4493 25.437 20.7145 26.0071C20.983 26.5739 21.3475 27.0047 21.8082 27.2997C22.2689 27.5914 22.7926 27.7372 23.3793 27.7372C23.9626 27.7372 24.4846 27.5914 24.9453 27.2997C25.4093 27.0047 25.7739 26.5739 26.0391 26.0071C26.3075 25.437 26.4418 24.7377 26.4418 23.9091ZM29.7591 29V21.3636H31.1958V22.5767H31.2754C31.4146 22.1657 31.6599 21.8426 32.0112 21.6072C32.3658 21.3686 32.7669 21.2493 33.2143 21.2493C33.3071 21.2493 33.4165 21.2526 33.5424 21.2592C33.6717 21.2659 33.7728 21.2741 33.8457 21.2841V22.706C33.786 22.6894 33.68 22.6712 33.5275 22.6513C33.3751 22.6281 33.2226 22.6165 33.0701 22.6165C32.7188 22.6165 32.4056 22.6911 32.1305 22.8402C31.8587 22.986 31.6433 23.1899 31.4842 23.4517C31.3251 23.7102 31.2456 24.0052 31.2456 24.3366V29H29.7591ZM37.7173 29.1491C37.1009 29.1491 36.5507 28.9917 36.0668 28.6768C35.5862 28.3587 35.2083 27.9062 34.9332 27.3196C34.6615 26.7296 34.5256 26.022 34.5256 25.1967C34.5256 24.3714 34.6631 23.6655 34.9382 23.0788C35.2166 22.4922 35.5978 22.0431 36.0817 21.7315C36.5656 21.42 37.1141 21.2642 37.7273 21.2642C38.2012 21.2642 38.5824 21.3438 38.8707 21.5028C39.1624 21.6586 39.3878 21.8409 39.5469 22.0497C39.7093 22.2585 39.8352 22.4425 39.9247 22.6016H40.0142V18.8182H41.5007V29H40.049V27.8118H39.9247C39.8352 27.9742 39.706 28.1598 39.5369 28.3686C39.3712 28.5774 39.1425 28.7597 38.8509 28.9155C38.5592 29.0713 38.1813 29.1491 37.7173 29.1491ZM38.0455 27.8814C38.473 27.8814 38.8343 27.7687 39.1293 27.5433C39.4276 27.3146 39.6529 26.9981 39.8054 26.5938C39.9612 26.1894 40.0391 25.7187 40.0391 25.1818C40.0391 24.6515 39.9628 24.1875 39.8104 23.7898C39.6579 23.392 39.4342 23.0821 39.1392 22.8601C38.8442 22.638 38.4796 22.527 38.0455 22.527C37.598 22.527 37.2251 22.643 36.9268 22.875C36.6286 23.107 36.4032 23.4235 36.2507 23.8246C36.1016 24.2256 36.027 24.678 36.027 25.1818C36.027 25.6922 36.1032 26.1513 36.2557 26.5589C36.4081 26.9666 36.6335 27.2898 36.9318 27.5284C37.2334 27.7637 37.6046 27.8814 38.0455 27.8814ZM46.9135 29.1541C46.1612 29.1541 45.5132 28.9934 44.9696 28.6719C44.4294 28.3471 44.0118 27.8913 43.7168 27.3047C43.4251 26.7147 43.2793 26.0237 43.2793 25.2315C43.2793 24.4493 43.4251 23.7599 43.7168 23.1634C44.0118 22.5668 44.4228 22.1011 44.9498 21.7663C45.4801 21.4316 46.0998 21.2642 46.8091 21.2642C47.24 21.2642 47.6576 21.3355 48.062 21.478C48.4663 21.6205 48.8292 21.8442 49.1507 22.1491C49.4722 22.4541 49.7258 22.8501 49.9114 23.3374C50.097 23.8213 50.1898 24.4096 50.1898 25.1023V25.6293H44.1195V24.5156H48.7331C48.7331 24.1245 48.6536 23.7782 48.4945 23.4766C48.3354 23.1716 48.1117 22.9313 47.8233 22.7557C47.5383 22.58 47.2035 22.4922 46.8191 22.4922C46.4015 22.4922 46.0369 22.5949 45.7253 22.8004C45.4171 23.0026 45.1784 23.2678 45.0094 23.5959C44.8437 23.9207 44.7608 24.2737 44.7608 24.6548V25.5249C44.7608 26.0353 44.8503 26.4695 45.0293 26.8274C45.2116 27.1854 45.4651 27.4588 45.79 27.6477C46.1148 27.8333 46.4943 27.9261 46.9284 27.9261C47.2102 27.9261 47.467 27.8864 47.699 27.8068C47.931 27.724 48.1316 27.6013 48.3006 27.4389C48.4696 27.2765 48.5989 27.076 48.6884 26.8374L50.0953 27.0909C49.9827 27.5052 49.7805 27.8681 49.4888 28.1797C49.2005 28.4879 48.8375 28.7282 48.4 28.9006C47.9658 29.0696 47.4703 29.1541 46.9135 29.1541ZM51.8391 29V21.3636H53.2759V22.5767H53.3555C53.4947 22.1657 53.7399 21.8426 54.0913 21.6072C54.4459 21.3686 54.8469 21.2493 55.2944 21.2493C55.3872 21.2493 55.4966 21.2526 55.6225 21.2592C55.7518 21.2659 55.8529 21.2741 55.9258 21.2841V22.706C55.8661 22.6894 55.7601 22.6712 55.6076 22.6513C55.4551 22.6281 55.3027 22.6165 55.1502 22.6165C54.7989 22.6165 54.4857 22.6911 54.2106 22.8402C53.9388 22.986 53.7234 23.1899 53.5643 23.4517C53.4052 23.7102 53.3256 24.0052 53.3256 24.3366V29H51.8391ZM64.7354 29L66.4059 18.8182H67.5991L65.9286 29H64.7354ZM60.1268 26.2756L60.3207 25.0824H68.0366L67.8427 26.2756H60.1268ZM61.1559 29L62.8263 18.8182H64.0195L62.3491 29H61.1559ZM60.7184 22.7358L60.9123 21.5426H68.6282L68.4343 22.7358H60.7184ZM73.6744 18.8182V29H72.1332V20.3594H72.0735L69.6374 21.9503V20.4787L72.1779 18.8182H73.6744ZM76.4286 29V27.8864L79.8739 24.3168C80.2418 23.929 80.5451 23.5893 80.7837 23.2976C81.0257 23.0026 81.2063 22.7225 81.3256 22.4574C81.445 22.1922 81.5046 21.9105 81.5046 21.6122C81.5046 21.2741 81.4251 20.9825 81.266 20.7372C81.1069 20.4886 80.8898 20.2981 80.6147 20.1655C80.3396 20.0296 80.0297 19.9616 79.685 19.9616C79.3204 19.9616 79.0022 20.0362 78.7305 20.1854C78.4587 20.3345 78.2499 20.545 78.104 20.8168C77.9582 21.0885 77.8853 21.4067 77.8853 21.7713H76.4187C76.4187 21.1515 76.5612 20.6096 76.8462 20.1456C77.1313 19.6816 77.5224 19.322 78.0195 19.0668C78.5167 18.8082 79.0818 18.679 79.7148 18.679C80.3545 18.679 80.918 18.8066 81.4052 19.0618C81.8957 19.3137 82.2785 19.6584 82.5536 20.0959C82.8287 20.5301 82.9663 21.0206 82.9663 21.5675C82.9663 21.9453 82.895 22.3149 82.7525 22.6761C82.6133 23.0374 82.3697 23.4401 82.0217 23.8842C81.6737 24.325 81.1897 24.8603 80.57 25.4901L78.5465 27.608V27.6825H83.1303V29H76.4286ZM88.5593 29.1392C87.8765 29.1392 87.2667 29.0215 86.7298 28.7862C86.1961 28.5509 85.7736 28.2244 85.462 27.8068C85.1538 27.3859 84.988 26.8987 84.9648 26.3452H86.5259C86.5458 26.6468 86.6469 26.9086 86.8292 27.1307C87.0148 27.3494 87.2567 27.5185 87.555 27.6378C87.8533 27.7571 88.1848 27.8168 88.5494 27.8168C88.9504 27.8168 89.305 27.7472 89.6133 27.608C89.9248 27.4687 90.1684 27.2749 90.3441 27.0263C90.5198 26.7744 90.6076 26.4844 90.6076 26.1562C90.6076 25.8149 90.5198 25.5149 90.3441 25.2564C90.1718 24.9946 89.9182 24.7891 89.5835 24.6399C89.252 24.4908 88.851 24.4162 88.3803 24.4162H87.5202V23.1634H88.3803C88.7582 23.1634 89.0896 23.0954 89.3746 22.9595C89.663 22.8236 89.8884 22.6347 90.0508 22.3928C90.2132 22.1475 90.2944 21.8608 90.2944 21.5327C90.2944 21.2178 90.2231 20.9444 90.0806 20.7124C89.9414 20.477 89.7425 20.2931 89.484 20.1605C89.2288 20.0279 88.9272 19.9616 88.5792 19.9616C88.2478 19.9616 87.9379 20.023 87.6495 20.1456C87.3645 20.2649 87.1325 20.4373 86.9535 20.6626C86.7745 20.8847 86.6784 21.1515 86.6651 21.4631H85.1786C85.1952 20.9129 85.3576 20.429 85.6658 20.0114C85.9774 19.5937 86.3884 19.2673 86.8988 19.032C87.4092 18.7966 87.976 18.679 88.5991 18.679C89.252 18.679 89.8155 18.8066 90.2894 19.0618C90.7667 19.3137 91.1346 19.6501 91.3931 20.071C91.6549 20.492 91.7842 20.9527 91.7809 21.4531C91.7842 22.0232 91.6251 22.5071 91.3036 22.9048C90.9854 23.3026 90.5612 23.5694 90.0309 23.7053V23.7848C90.707 23.8875 91.2307 24.156 91.6019 24.5902C91.9764 25.0244 92.1621 25.563 92.1587 26.206C92.1621 26.7661 92.0063 27.2682 91.6914 27.7124C91.3799 28.1565 90.954 28.5062 90.4137 28.7614C89.8735 29.0133 89.2553 29.1392 88.5593 29.1392ZM93.8242 27.0114V25.7685L98.2241 18.8182H99.2035V20.6477H98.582L95.435 25.6293V25.7088H101.466V27.0114H93.8242ZM98.6516 29V26.6335L98.6616 26.0668V18.8182H100.118V29H98.6516ZM106.559 29.1392C105.936 29.1392 105.376 29.0199 104.879 28.7812C104.385 28.5393 103.99 28.2079 103.695 27.7869C103.4 27.366 103.243 26.8854 103.223 26.3452H104.714C104.751 26.7827 104.945 27.1423 105.296 27.424C105.647 27.7057 106.068 27.8466 106.559 27.8466C106.95 27.8466 107.296 27.7571 107.598 27.5781C107.903 27.3958 108.142 27.1456 108.314 26.8274C108.49 26.5092 108.577 26.1463 108.577 25.7386C108.577 25.3243 108.488 24.9548 108.309 24.63C108.13 24.3052 107.883 24.05 107.568 23.8643C107.257 23.6787 106.899 23.5843 106.494 23.581C106.186 23.581 105.876 23.634 105.565 23.7401C105.253 23.8461 105.001 23.9853 104.809 24.1577L103.402 23.9489L103.974 18.8182H109.572V20.1357H105.251L104.928 22.9844H104.988C105.187 22.7921 105.45 22.6314 105.778 22.5021C106.11 22.3729 106.464 22.3082 106.842 22.3082C107.462 22.3082 108.014 22.4557 108.498 22.7507C108.985 23.0457 109.368 23.4484 109.646 23.9588C109.928 24.4659 110.067 25.0492 110.064 25.7088C110.067 26.3684 109.918 26.9567 109.616 27.4737C109.318 27.9908 108.904 28.3984 108.374 28.6967C107.847 28.9917 107.242 29.1392 106.559 29.1392ZM115.434 29.1392C114.98 29.1326 114.533 29.0497 114.092 28.8906C113.655 28.7315 113.257 28.4664 112.899 28.0952C112.541 27.724 112.254 27.2251 112.039 26.5987C111.827 25.9723 111.721 25.1901 111.721 24.2521C111.721 23.3639 111.809 22.575 111.984 21.8857C112.163 21.1963 112.42 20.6146 112.755 20.1406C113.09 19.6634 113.494 19.3004 113.968 19.0518C114.442 18.8033 114.974 18.679 115.564 18.679C116.17 18.679 116.709 18.7983 117.18 19.0369C117.65 19.2756 118.031 19.6054 118.323 20.0263C118.618 20.4472 118.805 20.9261 118.885 21.4631H117.368C117.266 21.0388 117.062 20.6925 116.757 20.424C116.452 20.1555 116.054 20.0213 115.564 20.0213C114.818 20.0213 114.236 20.3461 113.819 20.9957C113.404 21.6454 113.196 22.5485 113.192 23.7053H113.267C113.443 23.4169 113.658 23.1716 113.913 22.9695C114.172 22.764 114.46 22.6065 114.778 22.4972C115.1 22.3845 115.438 22.3281 115.792 22.3281C116.382 22.3281 116.916 22.4723 117.393 22.7607C117.874 23.0457 118.257 23.4401 118.542 23.9439C118.827 24.4477 118.969 25.0244 118.969 25.674C118.969 26.3236 118.822 26.9119 118.527 27.4389C118.235 27.9659 117.824 28.3835 117.294 28.6918C116.764 28.9967 116.144 29.1458 115.434 29.1392ZM115.43 27.8466C115.821 27.8466 116.17 27.7505 116.479 27.5582C116.787 27.366 117.03 27.1075 117.209 26.7827C117.388 26.4579 117.478 26.0949 117.478 25.6939C117.478 25.3028 117.39 24.9465 117.214 24.625C117.042 24.3035 116.803 24.0483 116.498 23.8594C116.197 23.6705 115.852 23.576 115.464 23.576C115.169 23.576 114.896 23.6323 114.644 23.745C114.395 23.8577 114.177 24.0135 113.988 24.2124C113.799 24.4112 113.65 24.6399 113.54 24.8984C113.434 25.1536 113.381 25.4238 113.381 25.7088C113.381 26.09 113.469 26.4429 113.645 26.7678C113.824 27.0926 114.067 27.3544 114.376 27.5533C114.687 27.7488 115.038 27.8466 115.43 27.8466Z" fill="#231F20"/>
<path d="M23.8295 40.4545C23.7784 40.0227 23.571 39.6875 23.2074 39.4489C22.8438 39.2102 22.3977 39.0909 21.8693 39.0909C21.483 39.0909 21.1449 39.1534 20.8551 39.2784C20.5682 39.4034 20.3438 39.5753 20.1818 39.794C20.0227 40.0128 19.9432 40.2614 19.9432 40.5398C19.9432 40.7727 19.9986 40.973 20.1094 41.1406C20.223 41.3054 20.3679 41.4432 20.544 41.554C20.7202 41.6619 20.9048 41.7514 21.098 41.8224C21.2912 41.8906 21.4688 41.946 21.6307 41.9886L22.517 42.2273C22.7443 42.2869 22.9972 42.3693 23.2756 42.4744C23.5568 42.5795 23.8253 42.723 24.081 42.9048C24.3395 43.0838 24.5526 43.3139 24.7202 43.5952C24.8878 43.8764 24.9716 44.2216 24.9716 44.6307C24.9716 45.1023 24.848 45.5284 24.6009 45.9091C24.3565 46.2898 23.9986 46.5923 23.527 46.8168C23.0582 47.0412 22.4886 47.1534 21.8182 47.1534C21.1932 47.1534 20.652 47.0526 20.1946 46.8509C19.7401 46.6491 19.3821 46.3679 19.1207 46.0071C18.8622 45.6463 18.7159 45.2273 18.6818 44.75H19.7727C19.8011 45.0795 19.9119 45.3523 20.1051 45.5682C20.3011 45.7812 20.5483 45.9403 20.8466 46.0455C21.1477 46.1477 21.4716 46.1989 21.8182 46.1989C22.2216 46.1989 22.5838 46.1335 22.9048 46.0028C23.2259 45.8693 23.4801 45.6847 23.6676 45.4489C23.8551 45.2102 23.9489 44.9318 23.9489 44.6136C23.9489 44.3239 23.8679 44.0881 23.706 43.9062C23.544 43.7244 23.331 43.5767 23.0668 43.4631C22.8026 43.3494 22.517 43.25 22.2102 43.1648L21.1364 42.858C20.4545 42.6619 19.9148 42.3821 19.517 42.0185C19.1193 41.6548 18.9205 41.179 18.9205 40.5909C18.9205 40.1023 19.0526 39.6761 19.3168 39.3125C19.5838 38.946 19.9418 38.6619 20.3906 38.4602C20.8423 38.2557 21.3466 38.1534 21.9034 38.1534C22.4659 38.1534 22.9659 38.2543 23.4034 38.456C23.8409 38.6548 24.1875 38.9276 24.4432 39.2741C24.7017 39.6207 24.8381 40.0142 24.8523 40.4545H23.8295ZM26.5728 49.4545V40.4545H27.5444V41.4943H27.6637C27.7376 41.3807 27.8398 41.2358 27.9705 41.0597C28.104 40.8807 28.2944 40.7216 28.5415 40.5824C28.7915 40.4403 29.1296 40.3693 29.5558 40.3693C30.1069 40.3693 30.5927 40.5071 31.0131 40.7827C31.4336 41.0582 31.7617 41.4489 31.9975 41.9545C32.2333 42.4602 32.3512 43.0568 32.3512 43.7443C32.3512 44.4375 32.2333 45.0384 31.9975 45.5469C31.7617 46.0526 31.435 46.4446 31.0174 46.723C30.5998 46.9986 30.1183 47.1364 29.5728 47.1364C29.1523 47.1364 28.8157 47.0668 28.5629 46.9276C28.31 46.7855 28.1154 46.625 27.979 46.446C27.8427 46.2642 27.7376 46.1136 27.6637 45.9943H27.5785V49.4545H26.5728ZM27.5614 43.7273C27.5614 44.2216 27.6339 44.6577 27.7788 45.0355C27.9237 45.4105 28.1353 45.7045 28.4137 45.9176C28.6921 46.1278 29.033 46.233 29.4364 46.233C29.8569 46.233 30.2077 46.1222 30.489 45.9006C30.7731 45.6761 30.9862 45.375 31.1282 44.9972C31.2731 44.6165 31.3455 44.1932 31.3455 43.7273C31.3455 43.267 31.2745 42.8523 31.1325 42.483C30.9933 42.1108 30.7816 41.8168 30.4975 41.6009C30.2163 41.3821 29.8626 41.2727 29.4364 41.2727C29.0273 41.2727 28.6836 41.3764 28.4052 41.5838C28.1268 41.7884 27.9165 42.0753 27.7745 42.4446C27.6325 42.8111 27.5614 43.2386 27.5614 43.7273ZM34.891 38.2727V47H33.8853V38.2727H34.891ZM36.733 47V40.4545H37.7386V47H36.733ZM37.2443 39.3636C37.0483 39.3636 36.8793 39.2969 36.7372 39.1634C36.598 39.0298 36.5284 38.8693 36.5284 38.6818C36.5284 38.4943 36.598 38.3338 36.7372 38.2003C36.8793 38.0668 37.0483 38 37.2443 38C37.4403 38 37.608 38.0668 37.7472 38.2003C37.8892 38.3338 37.9602 38.4943 37.9602 38.6818C37.9602 38.8693 37.8892 39.0298 37.7472 39.1634C37.608 39.2969 37.4403 39.3636 37.2443 39.3636ZM42.4954 40.4545V41.3068H38.967V40.4545H42.4954ZM40.0238 47V39.5511C40.0238 39.1761 40.1119 38.8636 40.288 38.6136C40.4641 38.3636 40.6928 38.1761 40.9741 38.0511C41.2553 37.9261 41.5522 37.8636 41.8647 37.8636C42.1119 37.8636 42.3136 37.8835 42.4698 37.9233C42.6261 37.9631 42.7425 38 42.8192 38.0341L42.5295 38.9034C42.4783 38.8864 42.4073 38.8651 42.3164 38.8395C42.2283 38.8139 42.1119 38.8011 41.967 38.8011C41.6346 38.8011 41.3945 38.8849 41.2468 39.0526C41.1019 39.2202 41.0295 39.4659 41.0295 39.7898V47H40.0238ZM46.8196 40.4545V41.3068H43.2912V40.4545H46.8196ZM44.348 47V39.5511C44.348 39.1761 44.4361 38.8636 44.6122 38.6136C44.7884 38.3636 45.017 38.1761 45.2983 38.0511C45.5795 37.9261 45.8764 37.8636 46.1889 37.8636C46.4361 37.8636 46.6378 37.8835 46.794 37.9233C46.9503 37.9631 47.0668 38 47.1435 38.0341L46.8537 38.9034C46.8026 38.8864 46.7315 38.8651 46.6406 38.8395C46.5526 38.8139 46.4361 38.8011 46.2912 38.8011C45.9588 38.8011 45.7188 38.8849 45.571 39.0526C45.4261 39.2202 45.3537 39.4659 45.3537 39.7898V47H44.348ZM54.4336 47H51.7404V38.2727H54.5529C55.3995 38.2727 56.1239 38.4474 56.7262 38.7969C57.3285 39.1435 57.7901 39.642 58.1112 40.2926C58.4322 40.9403 58.5927 41.7159 58.5927 42.6193C58.5927 43.5284 58.4308 44.3111 58.1069 44.9673C57.783 45.6207 57.3114 46.1236 56.6921 46.4759C56.0728 46.8253 55.32 47 54.4336 47ZM52.7972 46.0625H54.3654C55.087 46.0625 55.685 45.9233 56.1594 45.6449C56.6339 45.3665 56.9876 44.9702 57.2205 44.456C57.4535 43.9418 57.57 43.3295 57.57 42.6193C57.57 41.9148 57.4549 41.3082 57.2248 40.7997C56.9947 40.2884 56.6509 39.8963 56.1935 39.6236C55.7362 39.348 55.1665 39.2102 54.4847 39.2102H52.7972V46.0625ZM62.9734 47.1364C62.3427 47.1364 61.7987 46.9972 61.3413 46.7188C60.8867 46.4375 60.5359 46.0455 60.2887 45.5426C60.0444 45.0369 59.9222 44.4489 59.9222 43.7784C59.9222 43.108 60.0444 42.517 60.2887 42.0057C60.5359 41.4915 60.8796 41.0909 61.32 40.804C61.7631 40.5142 62.2802 40.3693 62.8711 40.3693C63.212 40.3693 63.5487 40.4261 63.881 40.5398C64.2134 40.6534 64.516 40.8381 64.7887 41.0938C65.0614 41.3466 65.2788 41.6818 65.4407 42.0994C65.6026 42.517 65.6836 43.0312 65.6836 43.642V44.0682H60.6381V43.1989H64.6609C64.6609 42.8295 64.587 42.5 64.4393 42.2102C64.2944 41.9205 64.087 41.6918 63.8171 41.5241C63.5501 41.3565 63.2347 41.2727 62.8711 41.2727C62.4705 41.2727 62.1239 41.3722 61.8313 41.571C61.5415 41.767 61.3185 42.0227 61.1623 42.3381C61.006 42.6534 60.9279 42.9915 60.9279 43.3523V43.9318C60.9279 44.4261 61.0131 44.8452 61.1836 45.1889C61.3569 45.5298 61.5969 45.7898 61.9038 45.9688C62.2106 46.1449 62.5671 46.233 62.9734 46.233C63.2376 46.233 63.4762 46.196 63.6893 46.1222C63.9052 46.0455 64.0913 45.9318 64.2475 45.7812C64.4038 45.6278 64.5245 45.4375 64.6097 45.2102L65.5813 45.483C65.479 45.8125 65.3072 46.1023 65.0657 46.3523C64.8242 46.5994 64.5259 46.7926 64.1708 46.9318C63.8157 47.0682 63.4165 47.1364 62.9734 47.1364ZM69.8725 47.1364C69.2589 47.1364 68.7305 46.9915 68.2873 46.7017C67.8441 46.4119 67.5032 46.0128 67.2646 45.5043C67.0259 44.9957 66.9066 44.4148 66.9066 43.7614C66.9066 43.0966 67.0288 42.5099 67.2731 42.0014C67.5202 41.4901 67.864 41.0909 68.3043 40.804C68.7475 40.5142 69.2646 40.3693 69.8555 40.3693C70.3157 40.3693 70.7305 40.4545 71.0998 40.625C71.4691 40.7955 71.7717 41.0341 72.0075 41.3409C72.2433 41.6477 72.3896 42.0057 72.4464 42.4148H71.4407C71.364 42.1165 71.1935 41.8523 70.9293 41.6222C70.668 41.3892 70.3157 41.2727 69.8725 41.2727C69.4805 41.2727 69.1367 41.375 68.8413 41.5795C68.5487 41.7812 68.32 42.0668 68.1552 42.4361C67.9933 42.8026 67.9123 43.233 67.9123 43.7273C67.9123 44.233 67.9918 44.6733 68.1509 45.0483C68.3129 45.4233 68.5401 45.7145 68.8327 45.9219C69.1282 46.1293 69.4748 46.233 69.8725 46.233C70.1339 46.233 70.3711 46.1875 70.5842 46.0966C70.7972 46.0057 70.9776 45.875 71.1254 45.7045C71.2731 45.5341 71.3782 45.3295 71.4407 45.0909H72.4464C72.3896 45.4773 72.2489 45.8253 72.0245 46.1349C71.8029 46.4418 71.5089 46.6861 71.1424 46.8679C70.7788 47.0469 70.3555 47.1364 69.8725 47.1364ZM73.9165 47V40.4545H74.9222V47H73.9165ZM74.4279 39.3636C74.2319 39.3636 74.0629 39.2969 73.9208 39.1634C73.7816 39.0298 73.712 38.8693 73.712 38.6818C73.712 38.4943 73.7816 38.3338 73.9208 38.2003C74.0629 38.0668 74.2319 38 74.4279 38C74.6239 38 74.7915 38.0668 74.9308 38.2003C75.0728 38.3338 75.1438 38.4943 75.1438 38.6818C75.1438 38.8693 75.0728 39.0298 74.9308 39.1634C74.7915 39.2969 74.6239 39.3636 74.4279 39.3636ZM81.4006 41.9205L80.4972 42.1761C80.4403 42.0256 80.3565 41.8793 80.2457 41.7372C80.1378 41.5923 79.9901 41.473 79.8026 41.3793C79.6151 41.2855 79.375 41.2386 79.0824 41.2386C78.6818 41.2386 78.348 41.331 78.081 41.5156C77.8168 41.6974 77.6847 41.929 77.6847 42.2102C77.6847 42.4602 77.7756 42.6577 77.9574 42.8026C78.1392 42.9474 78.4233 43.0682 78.8097 43.1648L79.7812 43.4034C80.3665 43.5455 80.8026 43.7628 81.0895 44.0554C81.3764 44.3452 81.5199 44.7187 81.5199 45.1761C81.5199 45.5511 81.4119 45.8864 81.196 46.1818C80.983 46.4773 80.6847 46.7102 80.3011 46.8807C79.9176 47.0511 79.4716 47.1364 78.9631 47.1364C78.2955 47.1364 77.7429 46.9915 77.3054 46.7017C76.8679 46.4119 76.5909 45.9886 76.4744 45.4318L77.429 45.1932C77.5199 45.5455 77.6918 45.8097 77.9446 45.9858C78.2003 46.1619 78.5341 46.25 78.946 46.25C79.4148 46.25 79.7869 46.1506 80.0625 45.9517C80.3409 45.75 80.4801 45.5085 80.4801 45.2273C80.4801 45 80.4006 44.8097 80.2415 44.6562C80.0824 44.5 79.8381 44.3835 79.5085 44.3068L78.4176 44.0511C77.8182 43.9091 77.3778 43.6889 77.0966 43.3906C76.8182 43.0895 76.679 42.7131 76.679 42.2614C76.679 41.892 76.7827 41.5653 76.9901 41.2812C77.2003 40.9972 77.4858 40.7741 77.8466 40.6122C78.2102 40.4503 78.6222 40.3693 79.0824 40.3693C79.7301 40.3693 80.2386 40.5114 80.608 40.7955C80.9801 41.0795 81.2443 41.4545 81.4006 41.9205ZM83.0337 47V40.4545H84.0394V47H83.0337ZM83.5451 39.3636C83.3491 39.3636 83.18 39.2969 83.038 39.1634C82.8988 39.0298 82.8292 38.8693 82.8292 38.6818C82.8292 38.4943 82.8988 38.3338 83.038 38.2003C83.18 38.0668 83.3491 38 83.5451 38C83.7411 38 83.9087 38.0668 84.0479 38.2003C84.19 38.3338 84.261 38.4943 84.261 38.6818C84.261 38.8693 84.19 39.0298 84.0479 39.1634C83.9087 39.2969 83.7411 39.3636 83.5451 39.3636ZM88.5405 47.1364C87.9496 47.1364 87.4311 46.9957 86.9851 46.7145C86.5419 46.4332 86.1953 46.0398 85.9453 45.5341C85.6982 45.0284 85.5746 44.4375 85.5746 43.7614C85.5746 43.0795 85.6982 42.4844 85.9453 41.9759C86.1953 41.4673 86.5419 41.0724 86.9851 40.7912C87.4311 40.5099 87.9496 40.3693 88.5405 40.3693C89.1314 40.3693 89.6484 40.5099 90.0916 40.7912C90.5376 41.0724 90.8842 41.4673 91.1314 41.9759C91.3814 42.4844 91.5064 43.0795 91.5064 43.7614C91.5064 44.4375 91.3814 45.0284 91.1314 45.5341C90.8842 46.0398 90.5376 46.4332 90.0916 46.7145C89.6484 46.9957 89.1314 47.1364 88.5405 47.1364ZM88.5405 46.233C88.9893 46.233 89.3587 46.1179 89.6484 45.8878C89.9382 45.6577 90.1527 45.3551 90.2919 44.9801C90.4311 44.6051 90.5007 44.1989 90.5007 43.7614C90.5007 43.3239 90.4311 42.9162 90.2919 42.5384C90.1527 42.1605 89.9382 41.8551 89.6484 41.6222C89.3587 41.3892 88.9893 41.2727 88.5405 41.2727C88.0916 41.2727 87.7223 41.3892 87.4325 41.6222C87.1428 41.8551 86.9283 42.1605 86.7891 42.5384C86.6499 42.9162 86.5803 43.3239 86.5803 43.7614C86.5803 44.1989 86.6499 44.6051 86.7891 44.9801C86.9283 45.3551 87.1428 45.6577 87.4325 45.8878C87.7223 46.1179 88.0916 46.233 88.5405 46.233ZM94.0472 43.0625V47H93.0415V40.4545H94.0131V41.4773H94.0984C94.2518 41.1449 94.4847 40.8778 94.7972 40.6761C95.1097 40.4716 95.5131 40.3693 96.0075 40.3693C96.4506 40.3693 96.8384 40.4602 97.1708 40.642C97.5032 40.821 97.7617 41.0938 97.9464 41.4602C98.131 41.8239 98.2234 42.2841 98.2234 42.8409V47H97.2177V42.9091C97.2177 42.3949 97.0842 41.9943 96.8171 41.7074C96.5501 41.4176 96.1836 41.2727 95.7177 41.2727C95.3967 41.2727 95.1097 41.3423 94.8569 41.4815C94.6069 41.6207 94.4094 41.8239 94.2646 42.0909C94.1197 42.358 94.0472 42.6818 94.0472 43.0625Z" fill="#999999"/>
<mask id="path-4-inside-1_1_9040" fill="white">
<path d="M2 65H698V167H2V65Z"/>
</mask>
<path d="M2 66H698V64H2V66Z" fill="black" fill-opacity="0.1" mask="url(#path-4-inside-1_1_9040)"/>
<path d="M32.6666 89.8867V90.5C32.6658 91.9376 32.2003 93.3364 31.3395 94.4879C30.4787 95.6393 29.2688 96.4816 27.8902 96.8893C26.5115 97.2969 25.0381 97.2479 23.6896 96.7497C22.341 96.2515 21.1897 95.3307 20.4072 94.1247C19.6248 92.9187 19.2531 91.492 19.3477 90.0575C19.4423 88.623 19.9981 87.2575 20.9321 86.1647C21.8662 85.0719 23.1284 84.3103 24.5307 83.9934C25.933 83.6766 27.4001 83.8216 28.7133 84.4067" stroke="#999999" stroke-width="1.5" stroke-linecap="round" stroke-linejoin="round"/>
<path d="M32.6667 85.1667L26 91.84L24 89.84" stroke="#999999" stroke-width="1.5" stroke-linecap="round" stroke-linejoin="round"/>
<path d="M55.5753 89.1293H54.0241C53.9645 88.7978 53.8535 88.5062 53.6911 88.2543C53.5286 88.0024 53.3298 87.7886 53.0945 87.6129C52.8591 87.4373 52.5956 87.3047 52.304 87.2152C52.0156 87.1257 51.709 87.081 51.3842 87.081C50.7976 87.081 50.2723 87.2285 49.8082 87.5234C49.3475 87.8184 48.983 88.2509 48.7145 88.821C48.4493 89.3911 48.3168 90.0871 48.3168 90.9091C48.3168 91.7377 48.4493 92.437 48.7145 93.0071C48.983 93.5772 49.3492 94.008 49.8132 94.2997C50.2772 94.5914 50.7992 94.7372 51.3793 94.7372C51.7008 94.7372 52.0057 94.6941 52.294 94.608C52.5857 94.5185 52.8492 94.3875 53.0845 94.2152C53.3198 94.0429 53.5187 93.8324 53.6811 93.5838C53.8468 93.3319 53.9612 93.0436 54.0241 92.7188L55.5753 92.7237C55.4924 93.2242 55.3317 93.6849 55.093 94.1058C54.8577 94.5234 54.5545 94.8847 54.1832 95.1896C53.8153 95.4912 53.3944 95.7249 52.9205 95.8906C52.4465 96.0563 51.9295 96.1392 51.3693 96.1392C50.4877 96.1392 49.7022 95.9304 49.0128 95.5128C48.3234 95.0919 47.7798 94.4903 47.3821 93.7081C46.9877 92.9259 46.7905 91.9929 46.7905 90.9091C46.7905 89.822 46.9893 88.889 47.3871 88.1101C47.7848 87.3279 48.3284 86.728 49.0178 86.3104C49.7071 85.8894 50.491 85.679 51.3693 85.679C51.9096 85.679 52.4134 85.7569 52.8807 85.9126C53.3513 86.0651 53.7739 86.2905 54.1484 86.5888C54.523 86.8838 54.8329 87.245 55.0781 87.6726C55.3234 88.0968 55.4891 88.5824 55.5753 89.1293ZM60.5108 96.1541C59.7949 96.1541 59.1702 95.9901 58.6365 95.6619C58.1029 95.3338 57.6886 94.8748 57.3936 94.2848C57.0987 93.6948 56.9512 93.0054 56.9512 92.2166C56.9512 91.4245 57.0987 90.7318 57.3936 90.1385C57.6886 89.5452 58.1029 89.0845 58.6365 88.7564C59.1702 88.4283 59.7949 88.2642 60.5108 88.2642C61.2267 88.2642 61.8515 88.4283 62.3851 88.7564C62.9187 89.0845 63.333 89.5452 63.628 90.1385C63.923 90.7318 64.0705 91.4245 64.0705 92.2166C64.0705 93.0054 63.923 93.6948 63.628 94.2848C63.333 94.8748 62.9187 95.3338 62.3851 95.6619C61.8515 95.9901 61.2267 96.1541 60.5108 96.1541ZM60.5158 94.9062C60.9798 94.9062 61.3643 94.7836 61.6692 94.5384C61.9741 94.2931 62.1995 93.9666 62.3453 93.5589C62.4945 93.1513 62.5691 92.7022 62.5691 92.2116C62.5691 91.7244 62.4945 91.277 62.3453 90.8693C62.1995 90.4583 61.9741 90.1286 61.6692 89.88C61.3643 89.6314 60.9798 89.5071 60.5158 89.5071C60.0485 89.5071 59.6607 89.6314 59.3525 89.88C59.0475 90.1286 58.8205 90.4583 58.6713 90.8693C58.5255 91.277 58.4526 91.7244 58.4526 92.2116C58.4526 92.7022 58.5255 93.1513 58.6713 93.5589C58.8205 93.9666 59.0475 94.2931 59.3525 94.5384C59.6607 94.7836 60.0485 94.9062 60.5158 94.9062ZM67.2163 91.4659V96H65.7298V88.3636H67.1566V89.6065H67.2511C67.4267 89.2022 67.7018 88.8774 68.0763 88.6321C68.4542 88.3868 68.9298 88.2642 69.5032 88.2642C70.0236 88.2642 70.4793 88.3736 70.8704 88.5923C71.2615 88.8078 71.5647 89.1293 71.7802 89.5568C71.9956 89.9844 72.1033 90.513 72.1033 91.1428V96H70.6168V91.3217C70.6168 90.7682 70.4727 90.3357 70.1843 90.0241C69.896 89.7093 69.4999 89.5518 68.9961 89.5518C68.6514 89.5518 68.3448 89.6264 68.0763 89.7756C67.8112 89.9247 67.6007 90.1435 67.445 90.4318C67.2925 90.7169 67.2163 91.0616 67.2163 91.4659ZM77.7312 88.3636V89.5568H73.4158V88.3636H77.7312ZM74.5991 96V87.4787C74.5991 87.0014 74.7035 86.6053 74.9123 86.2905C75.1211 85.9723 75.3978 85.7353 75.7425 85.5795C76.0872 85.4205 76.4618 85.3409 76.8661 85.3409C77.1644 85.3409 77.4196 85.3658 77.6317 85.4155C77.8439 85.4619 78.0013 85.505 78.104 85.5447L77.756 86.7479C77.6864 86.728 77.5969 86.7048 77.4876 86.6783C77.3782 86.6484 77.2456 86.6335 77.0898 86.6335C76.7286 86.6335 76.4701 86.723 76.3143 86.902C76.1618 87.081 76.0856 87.3395 76.0856 87.6776V96H74.5991ZM79.2649 96V88.3636H80.7514V96H79.2649ZM80.0156 87.1854C79.7571 87.1854 79.535 87.0992 79.3494 86.9268C79.1671 86.7512 79.076 86.5424 79.076 86.3004C79.076 86.0552 79.1671 85.8464 79.3494 85.674C79.535 85.4983 79.7571 85.4105 80.0156 85.4105C80.2741 85.4105 80.4946 85.4983 80.6768 85.674C80.8625 85.8464 80.9553 86.0552 80.9553 86.3004C80.9553 86.5424 80.8625 86.7512 80.6768 86.9268C80.4946 87.0992 80.2741 87.1854 80.0156 87.1854ZM82.7512 96V88.3636H84.188V89.5767H84.2676C84.4068 89.1657 84.652 88.8426 85.0034 88.6072C85.358 88.3686 85.7591 88.2493 86.2065 88.2493C86.2993 88.2493 86.4087 88.2526 86.5346 88.2592C86.6639 88.2659 86.765 88.2741 86.8379 88.2841V89.706C86.7782 89.6894 86.6722 89.6712 86.5197 89.6513C86.3672 89.6281 86.2148 89.6165 86.0623 89.6165C85.711 89.6165 85.3978 89.6911 85.1227 89.8402C84.8509 89.986 84.6355 90.1899 84.4764 90.4517C84.3173 90.7102 84.2377 91.0052 84.2377 91.3366V96H82.7512ZM88.1243 96V88.3636H89.5511V89.6065H89.6456C89.8047 89.1856 90.0649 88.8575 90.4261 88.6222C90.7874 88.3835 91.2199 88.2642 91.7237 88.2642C92.2341 88.2642 92.6617 88.3835 93.0064 88.6222C93.3544 88.8608 93.6113 89.1889 93.777 89.6065H93.8565C94.0388 89.1989 94.3288 88.8741 94.7266 88.6321C95.1243 88.3868 95.5982 88.2642 96.1484 88.2642C96.8411 88.2642 97.4062 88.4813 97.8438 88.9155C98.2846 89.3497 98.505 90.0043 98.505 90.8793V96H97.0185V91.0185C97.0185 90.5014 96.8776 90.1269 96.5959 89.8949C96.3142 89.6629 95.9777 89.5469 95.5866 89.5469C95.1027 89.5469 94.7266 89.696 94.4581 89.9943C94.1896 90.2893 94.0554 90.6688 94.0554 91.1328V96H92.5739V90.924C92.5739 90.5097 92.4446 90.1766 92.1861 89.9247C91.9276 89.6728 91.5911 89.5469 91.1768 89.5469C90.8951 89.5469 90.6349 89.6214 90.3963 89.7706C90.161 89.9164 89.9704 90.1203 89.8246 90.3821C89.6821 90.6439 89.6108 90.9472 89.6108 91.2919V96H88.1243ZM107.061 96.1491C106.445 96.1491 105.894 95.9917 105.411 95.6768C104.93 95.3587 104.552 94.9062 104.277 94.3196C104.005 93.7296 103.869 93.022 103.869 92.1967C103.869 91.3714 104.007 90.6655 104.282 90.0788C104.56 89.4922 104.942 89.0431 105.425 88.7315C105.909 88.42 106.458 88.2642 107.071 88.2642C107.545 88.2642 107.926 88.3438 108.214 88.5028C108.506 88.6586 108.732 88.8409 108.891 89.0497C109.053 89.2585 109.179 89.4425 109.268 89.6016H109.358V85.8182H110.844V96H109.393V94.8118H109.268C109.179 94.9742 109.05 95.1598 108.881 95.3686C108.715 95.5774 108.486 95.7597 108.195 95.9155C107.903 96.0713 107.525 96.1491 107.061 96.1491ZM107.389 94.8814C107.817 94.8814 108.178 94.7687 108.473 94.5433C108.771 94.3146 108.997 93.9981 109.149 93.5938C109.305 93.1894 109.383 92.7187 109.383 92.1818C109.383 91.6515 109.307 91.1875 109.154 90.7898C109.002 90.392 108.778 90.0821 108.483 89.8601C108.188 89.638 107.823 89.527 107.389 89.527C106.942 89.527 106.569 89.643 106.271 89.875C105.972 90.107 105.747 90.4235 105.594 90.8246C105.445 91.2256 105.371 91.678 105.371 92.1818C105.371 92.6922 105.447 93.1513 105.599 93.5589C105.752 93.9666 105.977 94.2898 106.276 94.5284C106.577 94.7637 106.948 94.8814 107.389 94.8814ZM116.257 96.1541C115.505 96.1541 114.857 95.9934 114.313 95.6719C113.773 95.3471 113.356 94.8913 113.061 94.3047C112.769 93.7147 112.623 93.0237 112.623 92.2315C112.623 91.4493 112.769 90.7599 113.061 90.1634C113.356 89.5668 113.767 89.1011 114.294 88.7663C114.824 88.4316 115.444 88.2642 116.153 88.2642C116.584 88.2642 117.001 88.3355 117.406 88.478C117.81 88.6205 118.173 88.8442 118.494 89.1491C118.816 89.4541 119.07 89.8501 119.255 90.3374C119.441 90.8213 119.534 91.4096 119.534 92.1023V92.6293H113.463V91.5156H118.077C118.077 91.1245 117.997 90.7782 117.838 90.4766C117.679 90.1716 117.455 89.9313 117.167 89.7557C116.882 89.58 116.547 89.4922 116.163 89.4922C115.745 89.4922 115.381 89.5949 115.069 89.8004C114.761 90.0026 114.522 90.2678 114.353 90.5959C114.187 90.9207 114.105 91.2737 114.105 91.6548V92.5249C114.105 93.0353 114.194 93.4695 114.373 93.8274C114.555 94.1854 114.809 94.4588 115.134 94.6477C115.459 94.8333 115.838 94.9261 116.272 94.9261C116.554 94.9261 116.811 94.8864 117.043 94.8068C117.275 94.724 117.475 94.6013 117.644 94.4389C117.813 94.2765 117.943 94.076 118.032 93.8374L119.439 94.0909C119.326 94.5052 119.124 94.8681 118.833 95.1797C118.544 95.4879 118.181 95.7282 117.744 95.9006C117.31 96.0696 116.814 96.1541 116.257 96.1541ZM122.669 85.8182V96H121.183V85.8182H122.669ZM124.669 96V88.3636H126.156V96H124.669ZM125.42 87.1854C125.161 87.1854 124.939 87.0992 124.754 86.9268C124.571 86.7512 124.48 86.5424 124.48 86.3004C124.48 86.0552 124.571 85.8464 124.754 85.674C124.939 85.4983 125.161 85.4105 125.42 85.4105C125.678 85.4105 125.899 85.4983 126.081 85.674C126.267 85.8464 126.36 86.0552 126.36 86.3004C126.36 86.5424 126.267 86.7512 126.081 86.9268C125.899 87.0992 125.678 87.1854 125.42 87.1854ZM134.688 88.3636L131.919 96H130.328L127.554 88.3636H129.15L131.084 94.2401H131.163L133.092 88.3636H134.688ZM139.117 96.1541C138.364 96.1541 137.716 95.9934 137.173 95.6719C136.633 95.3471 136.215 94.8913 135.92 94.3047C135.628 93.7147 135.482 93.0237 135.482 92.2315C135.482 91.4493 135.628 90.7599 135.92 90.1634C136.215 89.5668 136.626 89.1011 137.153 88.7663C137.683 88.4316 138.303 88.2642 139.012 88.2642C139.443 88.2642 139.861 88.3355 140.265 88.478C140.669 88.6205 141.032 88.8442 141.354 89.1491C141.675 89.4541 141.929 89.8501 142.115 90.3374C142.3 90.8213 142.393 91.4096 142.393 92.1023V92.6293H136.323V91.5156H140.936C140.936 91.1245 140.857 90.7782 140.698 90.4766C140.539 90.1716 140.315 89.9313 140.026 89.7557C139.741 89.58 139.407 89.4922 139.022 89.4922C138.605 89.4922 138.24 89.5949 137.928 89.8004C137.62 90.0026 137.382 90.2678 137.213 90.5959C137.047 90.9207 136.964 91.2737 136.964 91.6548V92.5249C136.964 93.0353 137.053 93.4695 137.232 93.8274C137.415 94.1854 137.668 94.4588 137.993 94.6477C138.318 94.8333 138.697 94.9261 139.132 94.9261C139.413 94.9261 139.67 94.8864 139.902 94.8068C140.134 94.724 140.335 94.6013 140.504 94.4389C140.673 94.2765 140.802 94.076 140.892 93.8374L142.298 94.0909C142.186 94.5052 141.984 94.8681 141.692 95.1797C141.404 95.4879 141.041 95.7282 140.603 95.9006C140.169 96.0696 139.673 96.1541 139.117 96.1541ZM144.042 96V88.3636H145.479V89.5767H145.559C145.698 89.1657 145.943 88.8426 146.294 88.6072C146.649 88.3686 147.05 88.2493 147.498 88.2493C147.59 88.2493 147.7 88.2526 147.826 88.2592C147.955 88.2659 148.056 88.2741 148.129 88.2841V89.706C148.069 89.6894 147.963 89.6712 147.811 89.6513C147.658 89.6281 147.506 89.6165 147.353 89.6165C147.002 89.6165 146.689 89.6911 146.414 89.8402C146.142 89.986 145.926 90.1899 145.767 90.4517C145.608 90.7102 145.529 91.0052 145.529 91.3366V96H144.042ZM150.587 98.8636C150.365 98.8636 150.163 98.8454 149.981 98.8089C149.799 98.7758 149.663 98.7393 149.573 98.6996L149.931 97.4815C150.203 97.5545 150.445 97.5859 150.657 97.576C150.869 97.5661 151.056 97.4865 151.219 97.3374C151.384 97.1882 151.53 96.9446 151.656 96.6065L151.84 96.0994L149.046 88.3636H150.637L152.571 94.2898H152.651L154.585 88.3636H156.18L153.033 97.0192C152.888 97.4169 152.702 97.7533 152.477 98.0284C152.251 98.3068 151.983 98.5156 151.671 98.6548C151.36 98.794 150.998 98.8636 150.587 98.8636Z" fill="#999999"/>
<rect x="623" y="81.5" width="59" height="18" rx="3" fill="#B7F4B5"/>
<rect x="623.5" y="82" width="58" height="17" rx="2.5" stroke="black" stroke-opacity="0.1"/>
<path d="M633.839 89.5923H632.732C632.689 89.3556 632.61 89.1473 632.494 88.9673C632.378 88.7874 632.236 88.6347 632.067 88.5092C631.899 88.3838 631.711 88.2891 631.503 88.2251C631.297 88.1612 631.078 88.1293 630.846 88.1293C630.427 88.1293 630.052 88.2346 629.72 88.4453C629.391 88.656 629.131 88.965 628.939 89.3722C628.75 89.7794 628.655 90.2765 628.655 90.8636C628.655 91.4555 628.75 91.955 628.939 92.3622C629.131 92.7694 629.392 93.0772 629.724 93.2855C630.055 93.4938 630.428 93.598 630.842 93.598C631.072 93.598 631.29 93.5672 631.496 93.5057C631.704 93.4418 631.892 93.3482 632.06 93.2251C632.228 93.102 632.371 92.9517 632.487 92.7741C632.605 92.5942 632.687 92.3883 632.732 92.1562L633.839 92.1598C633.78 92.5173 633.665 92.8464 633.495 93.147C633.327 93.4453 633.11 93.7034 632.845 93.9212C632.582 94.1366 632.282 94.3035 631.943 94.4219C631.605 94.5402 631.235 94.5994 630.835 94.5994C630.205 94.5994 629.644 94.4503 629.152 94.152C628.66 93.8513 628.271 93.4216 627.987 92.8629C627.705 92.3042 627.565 91.6378 627.565 90.8636C627.565 90.0871 627.707 89.4207 627.991 88.8643C628.275 88.3056 628.663 87.8771 629.156 87.5788C629.648 87.2782 630.208 87.1278 630.835 87.1278C631.221 87.1278 631.581 87.1835 631.915 87.2947C632.251 87.4036 632.553 87.5646 632.82 87.7777C633.088 87.9884 633.309 88.2464 633.484 88.5518C633.66 88.8549 633.778 89.2017 633.839 89.5923ZM637.365 94.6101C636.854 94.6101 636.407 94.4929 636.026 94.2585C635.645 94.0241 635.349 93.6963 635.138 93.2749C634.928 92.8535 634.822 92.361 634.822 91.7976C634.822 91.2318 634.928 90.737 635.138 90.3132C635.349 89.8894 635.645 89.5604 636.026 89.326C636.407 89.0916 636.854 88.9744 637.365 88.9744C637.876 88.9744 638.323 89.0916 638.704 89.326C639.085 89.5604 639.381 89.8894 639.591 90.3132C639.802 90.737 639.907 91.2318 639.907 91.7976C639.907 92.361 639.802 92.8535 639.591 93.2749C639.381 93.6963 639.085 94.0241 638.704 94.2585C638.323 94.4929 637.876 94.6101 637.365 94.6101ZM637.368 93.7188C637.7 93.7188 637.974 93.6312 638.192 93.456C638.41 93.2808 638.571 93.0476 638.675 92.7564C638.782 92.4652 638.835 92.1444 638.835 91.794C638.835 91.446 638.782 91.1264 638.675 90.8352C638.571 90.5417 638.41 90.3061 638.192 90.1286C637.974 89.951 637.7 89.8622 637.368 89.8622C637.035 89.8622 636.758 89.951 636.537 90.1286C636.32 90.3061 636.157 90.5417 636.051 90.8352C635.947 91.1264 635.895 91.446 635.895 91.794C635.895 92.1444 635.947 92.4652 636.051 92.7564C636.157 93.0476 636.32 93.2808 636.537 93.456C636.758 93.6312 637.035 93.7188 637.368 93.7188ZM642.154 91.2614V94.5H641.093V89.0455H642.112V89.9332H642.179C642.305 89.6444 642.501 89.4124 642.769 89.2372C643.039 89.062 643.378 88.9744 643.788 88.9744C644.16 88.9744 644.485 89.0526 644.765 89.2088C645.044 89.3627 645.261 89.5923 645.414 89.8977C645.568 90.2031 645.645 90.5807 645.645 91.0305V94.5H644.583V91.1584C644.583 90.763 644.48 90.4541 644.275 90.2315C644.069 90.0066 643.786 89.8942 643.426 89.8942C643.18 89.8942 642.961 89.9474 642.769 90.054C642.579 90.1605 642.429 90.3168 642.318 90.5227C642.209 90.7263 642.154 90.9725 642.154 91.2614ZM649.665 89.0455V89.8977H646.583V89.0455H649.665ZM647.428 94.5V88.4134C647.428 88.0724 647.502 87.7895 647.652 87.5646C647.801 87.3374 647.998 87.1681 648.245 87.0568C648.491 86.9432 648.758 86.8864 649.047 86.8864C649.26 86.8864 649.443 86.9041 649.594 86.9396C649.746 86.9728 649.858 87.0036 649.931 87.032L649.683 87.8913C649.633 87.8771 649.569 87.8606 649.491 87.8416C649.413 87.8203 649.318 87.8097 649.207 87.8097C648.949 87.8097 648.764 87.8736 648.653 88.0014C648.544 88.1293 648.49 88.3139 648.49 88.5554V94.5H647.428ZM650.761 94.5V89.0455H651.822V94.5H650.761ZM651.297 88.2038C651.112 88.2038 650.954 88.1423 650.821 88.0192C650.691 87.8937 650.626 87.7446 650.626 87.5717C650.626 87.3965 650.691 87.2474 650.821 87.1243C650.954 86.9988 651.112 86.9361 651.297 86.9361C651.482 86.9361 651.639 86.9988 651.769 87.1243C651.902 87.2474 651.968 87.3965 651.968 87.5717C651.968 87.7446 651.902 87.8937 651.769 88.0192C651.639 88.1423 651.482 88.2038 651.297 88.2038ZM653.251 94.5V89.0455H654.277V89.9119H654.334C654.433 89.6184 654.609 89.3875 654.86 89.2195C655.113 89.049 655.399 88.9638 655.719 88.9638C655.785 88.9638 655.863 88.9661 655.953 88.9709C656.046 88.9756 656.118 88.9815 656.17 88.9886V90.0043C656.127 89.9924 656.052 89.9794 655.943 89.9652C655.834 89.9486 655.725 89.9403 655.616 89.9403C655.365 89.9403 655.141 89.9936 654.945 90.1001C654.751 90.2043 654.597 90.3499 654.483 90.5369C654.369 90.7216 654.313 90.9323 654.313 91.169V94.5H653.251ZM657.089 94.5V89.0455H658.108V89.9332H658.175C658.289 89.6326 658.475 89.3982 658.733 89.2301C658.991 89.0597 659.3 88.9744 659.66 88.9744C660.024 88.9744 660.33 89.0597 660.576 89.2301C660.825 89.4006 661.008 89.6349 661.126 89.9332H661.183C661.313 89.642 661.521 89.41 661.805 89.2372C662.089 89.062 662.427 88.9744 662.82 88.9744C663.315 88.9744 663.719 89.1295 664.031 89.4396C664.346 89.7498 664.504 90.2173 664.504 90.8423V94.5H663.442V90.9418C663.442 90.5724 663.341 90.3049 663.14 90.1392C662.939 89.9735 662.698 89.8906 662.419 89.8906C662.073 89.8906 661.805 89.9972 661.613 90.2102C661.421 90.4209 661.325 90.692 661.325 91.0234V94.5H660.267V90.8743C660.267 90.5784 660.175 90.3404 659.99 90.1605C659.805 89.9806 659.565 89.8906 659.269 89.8906C659.068 89.8906 658.882 89.9439 658.712 90.0504C658.544 90.1546 658.407 90.3002 658.303 90.4872C658.201 90.6742 658.151 90.8909 658.151 91.1371V94.5H657.089ZM668.278 94.6101C667.74 94.6101 667.277 94.4953 666.889 94.2656C666.503 94.0336 666.205 93.7081 665.994 93.2891C665.786 92.8677 665.682 92.3741 665.682 91.8082C665.682 91.2495 665.786 90.7571 665.994 90.331C666.205 89.9048 666.498 89.5722 666.875 89.3331C667.254 89.094 667.696 88.9744 668.203 88.9744C668.511 88.9744 668.809 89.0253 669.098 89.1271C669.387 89.2289 669.646 89.3887 669.876 89.6065C670.105 89.8243 670.286 90.1072 670.419 90.4553C670.551 90.8009 670.618 91.2211 670.618 91.7159V92.0923H666.282V91.2969H669.577C669.577 91.0175 669.52 90.7701 669.407 90.5547C669.293 90.3369 669.133 90.1652 668.927 90.0398C668.724 89.9143 668.485 89.8516 668.21 89.8516C667.912 89.8516 667.651 89.925 667.429 90.0717C667.209 90.2161 667.038 90.4055 666.917 90.6399C666.799 90.8719 666.74 91.1241 666.74 91.3963V92.0178C666.74 92.3823 666.804 92.6925 666.932 92.9482C667.062 93.2038 667.243 93.3991 667.475 93.5341C667.707 93.6667 667.978 93.733 668.288 93.733C668.489 93.733 668.673 93.7045 668.839 93.6477C669.004 93.5885 669.148 93.5009 669.268 93.3849C669.389 93.2689 669.481 93.1257 669.545 92.9553L670.55 93.1364C670.47 93.4323 670.325 93.6915 670.117 93.9141C669.911 94.1342 669.652 94.3059 669.339 94.429C669.029 94.5497 668.675 94.6101 668.278 94.6101ZM673.838 94.6065C673.397 94.6065 673.004 94.4941 672.659 94.2692C672.315 94.0419 672.046 93.7187 671.849 93.2997C671.655 92.8783 671.558 92.3729 671.558 91.7834C671.558 91.1939 671.656 90.6896 671.853 90.2706C672.051 89.8516 672.324 89.5308 672.669 89.3082C673.015 89.0857 673.407 88.9744 673.845 88.9744C674.183 88.9744 674.456 89.0312 674.662 89.1449C674.87 89.2562 675.031 89.3864 675.145 89.5355C675.261 89.6847 675.35 89.8161 675.414 89.9297H675.478V87.2273H676.54V94.5H675.503V93.6513H675.414C675.35 93.7673 675.258 93.8999 675.137 94.049C675.019 94.1982 674.856 94.3284 674.647 94.4396C674.439 94.5509 674.169 94.6065 673.838 94.6065ZM674.072 93.701C674.377 93.701 674.636 93.6205 674.846 93.4595C675.059 93.2962 675.22 93.0701 675.329 92.7812C675.44 92.4924 675.496 92.1562 675.496 91.7727C675.496 91.3939 675.442 91.0625 675.333 90.7784C675.224 90.4943 675.064 90.273 674.853 90.1143C674.643 89.9557 674.382 89.8764 674.072 89.8764C673.752 89.8764 673.486 89.9593 673.273 90.125C673.06 90.2907 672.899 90.5168 672.79 90.8033C672.684 91.0897 672.63 91.4129 672.63 91.7727C672.63 92.1373 672.685 92.4652 672.794 92.7564C672.903 93.0476 673.064 93.2784 673.277 93.4489C673.492 93.617 673.757 93.701 674.072 93.701Z" fill="#30672F"/>
<mask id="path-12-inside-2_1_9040" fill="white">
<path d="M18 116H698V167H18V116Z"/>
</mask>
<path d="M18 117H698V115H18V117Z" fill="black" fill-opacity="0.1" mask="url(#path-12-inside-2_1_9040)"/>
<g clip-path="url(#clip1_1_9040)">
<path d="M26 134.167V148.833" stroke="#999999" stroke-width="1.5" stroke-linecap="round" stroke-linejoin="round"/>
<path d="M29.3333 136.833H24.3333C23.7145 136.833 23.121 137.079 22.6834 137.517C22.2458 137.954 22 138.548 22 139.167C22 139.786 22.2458 140.379 22.6834 140.817C23.121 141.254 23.7145 141.5 24.3333 141.5H27.6667C28.2855 141.5 28.879 141.746 29.3166 142.183C29.7542 142.621 30 143.214 30 143.833C30 144.452 29.7542 145.046 29.3166 145.483C28.879 145.921 28.2855 146.167 27.6667 146.167H22" stroke="#999999" stroke-width="1.5" stroke-linecap="round" stroke-linejoin="round"/>
</g>
<path d="M47.1186 147V136.818H50.7479C51.5367 136.818 52.1913 136.954 52.7116 137.226C53.2353 137.498 53.6264 137.874 53.8849 138.354C54.1435 138.832 54.2727 139.384 54.2727 140.01C54.2727 140.633 54.1418 141.182 53.88 141.656C53.6214 142.126 53.2304 142.492 52.7067 142.754C52.1863 143.016 51.5317 143.147 50.7429 143.147H47.9936V141.825H50.6037C51.1009 141.825 51.5052 141.753 51.8168 141.611C52.1316 141.468 52.362 141.261 52.5078 140.989C52.6536 140.718 52.7266 140.391 52.7266 140.01C52.7266 139.625 52.652 139.292 52.5028 139.011C52.357 138.729 52.1267 138.513 51.8118 138.364C51.5002 138.212 51.0909 138.136 50.5838 138.136H48.6548V147H47.1186ZM52.1449 142.406L54.6605 147H52.9105L50.4446 142.406H52.1449ZM59.2182 147.154C58.4658 147.154 57.8179 146.993 57.2743 146.672C56.7341 146.347 56.3165 145.891 56.0215 145.305C55.7298 144.715 55.584 144.024 55.584 143.232C55.584 142.449 55.7298 141.76 56.0215 141.163C56.3165 140.567 56.7275 140.101 57.2544 139.766C57.7847 139.432 58.4045 139.264 59.1138 139.264C59.5447 139.264 59.9623 139.335 60.3667 139.478C60.771 139.621 61.1339 139.844 61.4554 140.149C61.7769 140.454 62.0305 140.85 62.2161 141.337C62.4017 141.821 62.4945 142.41 62.4945 143.102V143.629H56.4242V142.516H61.0378C61.0378 142.125 60.9583 141.778 60.7992 141.477C60.6401 141.172 60.4164 140.931 60.128 140.756C59.843 140.58 59.5082 140.492 59.1238 140.492C58.7061 140.492 58.3416 140.595 58.03 140.8C57.7218 141.003 57.4831 141.268 57.3141 141.596C57.1484 141.921 57.0655 142.274 57.0655 142.655V143.525C57.0655 144.035 57.155 144.469 57.334 144.827C57.5163 145.185 57.7698 145.459 58.0946 145.648C58.4194 145.833 58.7989 145.926 59.2331 145.926C59.5149 145.926 59.7717 145.886 60.0037 145.807C60.2357 145.724 60.4363 145.601 60.6053 145.439C60.7743 145.277 60.9036 145.076 60.9931 144.837L62.4 145.091C62.2873 145.505 62.0852 145.868 61.7935 146.18C61.5051 146.488 61.1422 146.728 60.7047 146.901C60.2705 147.07 59.775 147.154 59.2182 147.154ZM67.3604 147.154C66.6213 147.154 65.985 146.987 65.4513 146.652C64.921 146.314 64.5134 145.848 64.2283 145.255C63.9433 144.662 63.8008 143.982 63.8008 143.217C63.8008 142.441 63.9466 141.757 64.2383 141.163C64.5299 140.567 64.9409 140.101 65.4712 139.766C66.0015 139.432 66.6263 139.264 67.3455 139.264C67.9255 139.264 68.4426 139.372 68.8967 139.587C69.3507 139.799 69.717 140.098 69.9954 140.482C70.2771 140.867 70.4445 141.316 70.4975 141.83H69.0508C68.9712 141.472 68.7889 141.163 68.5039 140.905C68.2222 140.646 67.8443 140.517 67.3704 140.517C66.9561 140.517 66.5932 140.626 66.2816 140.845C65.9734 141.061 65.7331 141.369 65.5607 141.77C65.3884 142.168 65.3022 142.638 65.3022 143.182C65.3022 143.739 65.3867 144.219 65.5558 144.624C65.7248 145.028 65.9634 145.341 66.2717 145.563C66.5832 145.785 66.9495 145.896 67.3704 145.896C67.6521 145.896 67.9073 145.845 68.136 145.742C68.368 145.636 68.5619 145.485 68.7177 145.29C68.8768 145.094 68.9878 144.859 69.0508 144.584H70.4975C70.4445 145.078 70.2837 145.518 70.0153 145.906C69.7468 146.294 69.3872 146.599 68.9364 146.821C68.489 147.043 67.9637 147.154 67.3604 147.154ZM75.3038 147.154C74.5879 147.154 73.9631 146.99 73.4295 146.662C72.8959 146.334 72.4816 145.875 72.1866 145.285C71.8916 144.695 71.7441 144.005 71.7441 143.217C71.7441 142.424 71.8916 141.732 72.1866 141.138C72.4816 140.545 72.8959 140.085 73.4295 139.756C73.9631 139.428 74.5879 139.264 75.3038 139.264C76.0197 139.264 76.6445 139.428 77.1781 139.756C77.7117 140.085 78.126 140.545 78.421 141.138C78.716 141.732 78.8635 142.424 78.8635 143.217C78.8635 144.005 78.716 144.695 78.421 145.285C78.126 145.875 77.7117 146.334 77.1781 146.662C76.6445 146.99 76.0197 147.154 75.3038 147.154ZM75.3088 145.906C75.7728 145.906 76.1573 145.784 76.4622 145.538C76.7671 145.293 76.9925 144.967 77.1383 144.559C77.2875 144.151 77.362 143.702 77.362 143.212C77.362 142.724 77.2875 142.277 77.1383 141.869C76.9925 141.458 76.7671 141.129 76.4622 140.88C76.1573 140.631 75.7728 140.507 75.3088 140.507C74.8414 140.507 74.4537 140.631 74.1454 140.88C73.8405 141.129 73.6135 141.458 73.4643 141.869C73.3185 142.277 73.2456 142.724 73.2456 143.212C73.2456 143.702 73.3185 144.151 73.4643 144.559C73.6135 144.967 73.8405 145.293 74.1454 145.538C74.4537 145.784 74.8414 145.906 75.3088 145.906ZM80.5227 147V139.364H81.9595V140.577H82.0391C82.1783 140.166 82.4235 139.843 82.7749 139.607C83.1295 139.369 83.5305 139.249 83.978 139.249C84.0708 139.249 84.1802 139.253 84.3061 139.259C84.4354 139.266 84.5365 139.274 84.6094 139.284V140.706C84.5497 140.689 84.4437 140.671 84.2912 140.651C84.1387 140.628 83.9863 140.616 83.8338 140.616C83.4825 140.616 83.1693 140.691 82.8942 140.84C82.6224 140.986 82.407 141.19 82.2479 141.452C82.0888 141.71 82.0092 142.005 82.0092 142.337V147H80.5227ZM88.481 147.149C87.8645 147.149 87.3143 146.992 86.8304 146.677C86.3498 146.359 85.972 145.906 85.6969 145.32C85.4251 144.73 85.2892 144.022 85.2892 143.197C85.2892 142.371 85.4268 141.665 85.7019 141.079C85.9803 140.492 86.3614 140.043 86.8453 139.732C87.3292 139.42 87.8778 139.264 88.4909 139.264C88.9649 139.264 89.3461 139.344 89.6344 139.503C89.9261 139.659 90.1515 139.841 90.3105 140.05C90.473 140.259 90.5989 140.442 90.6884 140.602H90.7779V136.818H92.2644V147H90.8127V145.812H90.6884C90.5989 145.974 90.4696 146.16 90.3006 146.369C90.1349 146.577 89.9062 146.76 89.6145 146.915C89.3229 147.071 88.945 147.149 88.481 147.149ZM88.8091 145.881C89.2367 145.881 89.598 145.769 89.8929 145.543C90.1912 145.315 90.4166 144.998 90.5691 144.594C90.7248 144.189 90.8027 143.719 90.8027 143.182C90.8027 142.652 90.7265 142.187 90.574 141.79C90.4216 141.392 90.1979 141.082 89.9029 140.86C89.6079 140.638 89.2433 140.527 88.8091 140.527C88.3617 140.527 87.9888 140.643 87.6905 140.875C87.3922 141.107 87.1668 141.424 87.0144 141.825C86.8652 142.226 86.7907 142.678 86.7907 143.182C86.7907 143.692 86.8669 144.151 87.0194 144.559C87.1718 144.967 87.3972 145.29 87.6955 145.528C87.9971 145.764 88.3683 145.881 88.8091 145.881ZM98.0911 149.864V139.364H99.5428V140.602H99.6671C99.7533 140.442 99.8775 140.259 100.04 140.05C100.202 139.841 100.428 139.659 100.716 139.503C101.004 139.344 101.386 139.264 101.86 139.264C102.476 139.264 103.026 139.42 103.51 139.732C103.994 140.043 104.374 140.492 104.649 141.079C104.927 141.665 105.066 142.371 105.066 143.197C105.066 144.022 104.929 144.73 104.654 145.32C104.378 145.906 104.001 146.359 103.52 146.677C103.039 146.992 102.491 147.149 101.874 147.149C101.41 147.149 101.031 147.071 100.736 146.915C100.444 146.76 100.216 146.577 100.05 146.369C99.8842 146.16 99.7566 145.974 99.6671 145.812H99.5776V149.864H98.0911ZM99.5478 143.182C99.5478 143.719 99.6257 144.189 99.7814 144.594C99.9372 144.998 100.163 145.315 100.458 145.543C100.753 145.769 101.114 145.881 101.541 145.881C101.985 145.881 102.357 145.764 102.655 145.528C102.953 145.29 103.179 144.967 103.331 144.559C103.487 144.151 103.565 143.692 103.565 143.182C103.565 142.678 103.489 142.226 103.336 141.825C103.187 141.424 102.962 141.107 102.66 140.875C102.362 140.643 101.989 140.527 101.541 140.527C101.11 140.527 100.746 140.638 100.448 140.86C100.153 141.082 99.9289 141.392 99.7765 141.79C99.624 142.187 99.5478 142.652 99.5478 143.182ZM108.954 147.169C108.47 147.169 108.033 147.08 107.642 146.901C107.25 146.718 106.941 146.455 106.712 146.11C106.486 145.765 106.374 145.343 106.374 144.842C106.374 144.411 106.457 144.057 106.622 143.778C106.788 143.5 107.012 143.28 107.294 143.117C107.575 142.955 107.89 142.832 108.238 142.749C108.586 142.666 108.941 142.603 109.302 142.56C109.759 142.507 110.131 142.464 110.416 142.431C110.701 142.395 110.908 142.337 111.037 142.257C111.166 142.178 111.231 142.048 111.231 141.869V141.835C111.231 141.4 111.108 141.064 110.863 140.825C110.621 140.587 110.26 140.467 109.779 140.467C109.279 140.467 108.884 140.578 108.596 140.8C108.311 141.019 108.114 141.263 108.004 141.531L106.607 141.213C106.773 140.749 107.015 140.375 107.333 140.089C107.655 139.801 108.024 139.592 108.442 139.463C108.86 139.33 109.299 139.264 109.759 139.264C110.064 139.264 110.387 139.301 110.729 139.374C111.074 139.443 111.395 139.572 111.693 139.761C111.995 139.95 112.242 140.22 112.434 140.572C112.626 140.92 112.722 141.372 112.722 141.929V147H111.271V145.956H111.211C111.115 146.148 110.971 146.337 110.779 146.523C110.586 146.708 110.339 146.862 110.038 146.985C109.736 147.108 109.375 147.169 108.954 147.169ZM109.277 145.976C109.688 145.976 110.039 145.895 110.331 145.732C110.626 145.57 110.85 145.358 111.002 145.096C111.158 144.831 111.236 144.547 111.236 144.246V143.261C111.183 143.314 111.08 143.364 110.928 143.411C110.779 143.454 110.608 143.492 110.416 143.525C110.223 143.555 110.036 143.583 109.854 143.609C109.672 143.633 109.519 143.652 109.396 143.669C109.108 143.705 108.845 143.767 108.606 143.853C108.371 143.939 108.182 144.063 108.039 144.226C107.9 144.385 107.83 144.597 107.83 144.862C107.83 145.23 107.966 145.509 108.238 145.697C108.51 145.883 108.856 145.976 109.277 145.976ZM115.369 149.864C115.147 149.864 114.944 149.845 114.762 149.809C114.58 149.776 114.444 149.739 114.354 149.7L114.712 148.482C114.984 148.554 115.226 148.586 115.438 148.576C115.65 148.566 115.838 148.487 116 148.337C116.166 148.188 116.312 147.945 116.438 147.607L116.621 147.099L113.827 139.364H115.418L117.352 145.29H117.432L119.366 139.364H120.962L117.815 148.019C117.669 148.417 117.483 148.753 117.258 149.028C117.032 149.307 116.764 149.516 116.452 149.655C116.141 149.794 115.78 149.864 115.369 149.864ZM122.359 147V139.364H123.786V140.607H123.88C124.039 140.186 124.299 139.857 124.661 139.622C125.022 139.384 125.454 139.264 125.958 139.264C126.469 139.264 126.896 139.384 127.241 139.622C127.589 139.861 127.846 140.189 128.011 140.607H128.091C128.273 140.199 128.563 139.874 128.961 139.632C129.359 139.387 129.833 139.264 130.383 139.264C131.076 139.264 131.641 139.481 132.078 139.915C132.519 140.35 132.739 141.004 132.739 141.879V147H131.253V142.018C131.253 141.501 131.112 141.127 130.83 140.895C130.549 140.663 130.212 140.547 129.821 140.547C129.337 140.547 128.961 140.696 128.692 140.994C128.424 141.289 128.29 141.669 128.29 142.133V147H126.808V141.924C126.808 141.51 126.679 141.177 126.42 140.925C126.162 140.673 125.826 140.547 125.411 140.547C125.129 140.547 124.869 140.621 124.631 140.771C124.395 140.916 124.205 141.12 124.059 141.382C123.916 141.644 123.845 141.947 123.845 142.292V147H122.359ZM138.023 147.154C137.271 147.154 136.623 146.993 136.079 146.672C135.539 146.347 135.121 145.891 134.826 145.305C134.535 144.715 134.389 144.024 134.389 143.232C134.389 142.449 134.535 141.76 134.826 141.163C135.121 140.567 135.532 140.101 136.059 139.766C136.589 139.432 137.209 139.264 137.919 139.264C138.349 139.264 138.767 139.335 139.171 139.478C139.576 139.621 139.939 139.844 140.26 140.149C140.582 140.454 140.835 140.85 141.021 141.337C141.206 141.821 141.299 142.41 141.299 143.102V143.629H135.229V142.516H139.843C139.843 142.125 139.763 141.778 139.604 141.477C139.445 141.172 139.221 140.931 138.933 140.756C138.648 140.58 138.313 140.492 137.928 140.492C137.511 140.492 137.146 140.595 136.835 140.8C136.526 141.003 136.288 141.268 136.119 141.596C135.953 141.921 135.87 142.274 135.87 142.655V143.525C135.87 144.035 135.96 144.469 136.139 144.827C136.321 145.185 136.575 145.459 136.899 145.648C137.224 145.833 137.604 145.926 138.038 145.926C138.32 145.926 138.576 145.886 138.808 145.807C139.04 145.724 139.241 145.601 139.41 145.439C139.579 145.277 139.708 145.076 139.798 144.837L141.205 145.091C141.092 145.505 140.89 145.868 140.598 146.18C140.31 146.488 139.947 146.728 139.509 146.901C139.075 147.07 138.58 147.154 138.023 147.154ZM144.435 142.466V147H142.949V139.364H144.375V140.607H144.47C144.645 140.202 144.921 139.877 145.295 139.632C145.673 139.387 146.149 139.264 146.722 139.264C147.242 139.264 147.698 139.374 148.089 139.592C148.48 139.808 148.783 140.129 148.999 140.557C149.214 140.984 149.322 141.513 149.322 142.143V147H147.836V142.322C147.836 141.768 147.691 141.336 147.403 141.024C147.115 140.709 146.719 140.552 146.215 140.552C145.87 140.552 145.564 140.626 145.295 140.776C145.03 140.925 144.819 141.143 144.664 141.432C144.511 141.717 144.435 142.062 144.435 142.466ZM154.88 139.364V140.557H150.709V139.364H154.88ZM151.828 137.534H153.314V144.758C153.314 145.046 153.357 145.263 153.444 145.409C153.53 145.552 153.641 145.649 153.777 145.702C153.916 145.752 154.067 145.777 154.229 145.777C154.348 145.777 154.453 145.769 154.542 145.752C154.632 145.736 154.701 145.722 154.751 145.712L155.02 146.94C154.933 146.973 154.811 147.007 154.652 147.04C154.493 147.076 154.294 147.096 154.055 147.099C153.664 147.106 153.299 147.036 152.961 146.891C152.623 146.745 152.35 146.519 152.141 146.214C151.932 145.91 151.828 145.527 151.828 145.066V137.534Z" fill="#231F20"/>
</g>
</g>
<defs>
<filter id="filter0_d_1_9040" x="0" y="0" width="700" height="171" filterUnits="userSpaceOnUse" color-interpolation-filters="sRGB">
<feFlood flood-opacity="0" result="BackgroundImageFix"/>
<feColorMatrix in="SourceAlpha" type="matrix" values="0 0 0 0 0 0 0 0 0 0 0 0 0 0 0 0 0 0 127 0" result="hardAlpha"/>
<feOffset dy="2"/>
<feGaussianBlur stdDeviation="1"/>
<feComposite in2="hardAlpha" operator="out"/>
<feColorMatrix type="matrix" values="0 0 0 0 0 0 0 0 0 0 0 0 0 0 0 0 0 0 0.15 0"/>
<feBlend mode="normal" in2="BackgroundImageFix" result="effect1_dropShadow_1_9040"/>
<feBlend mode="normal" in="SourceGraphic" in2="effect1_dropShadow_1_9040" result="shape"/>
</filter>
<clipPath id="clip0_1_9040">
<rect x="2" width="696" height="167" rx="8" fill="white"/>
</clipPath>
<clipPath id="clip1_1_9040">
<rect width="16" height="16" fill="white" transform="translate(18 133.5)"/>
</clipPath>
</defs>
</svg>